<svg width="40" height="40" viewBox="0 0 40 40" fill="none" xmlns="http://www.w3.org/2000/svg">
<path d="M14.004 13.8116H14.028C14.2046 13.8053 14.3715 13.7292 14.492 13.6C14.6125 13.4707 14.6768 13.2989 14.6707 13.1223C14.6173 11.5809 15.0613 10.7689 16.254 10.2269C16.3337 10.1907 16.4055 10.1391 16.4653 10.0751C16.525 10.0111 16.5716 9.93597 16.6024 9.85398C16.6331 9.77199 16.6474 9.68474 16.6444 9.59723C16.6414 9.50971 16.6212 9.42364 16.585 9.34393C16.5487 9.26421 16.4972 9.19242 16.4332 9.13265C16.3692 9.07287 16.294 9.02629 16.212 8.99555C16.1301 8.96482 16.0428 8.95053 15.9553 8.95351C15.8678 8.95649 15.7817 8.97668 15.702 9.01293C14.0173 9.77893 13.266 11.0989 13.3387 13.1683C13.3447 13.3408 13.4174 13.5042 13.5415 13.6242C13.6656 13.7442 13.8314 13.8114 14.004 13.8116Z" fill="#D10C35"/>
<path d="M13.2866 26.4759V31.6672C13.2866 32.1976 13.4973 32.7064 13.8724 33.0814C14.2475 33.4565 14.7562 33.6672 15.2866 33.6672H23.2866C23.8171 33.6672 24.3258 33.4565 24.7008 33.0814C25.0759 32.7064 25.2866 32.1976 25.2866 31.6672V26.6672C26.5846 25.6519 31.9533 21.0899 31.9533 15.0672C31.9533 13.3526 31.4993 12.2065 30.6046 11.6619C30.2003 11.451 29.7536 11.3343 29.2978 11.3204C28.842 11.3066 28.389 11.396 27.9726 11.5819C27.9058 10.4871 27.5256 9.43469 26.8772 8.55005C26.2289 7.66541 25.3398 6.9859 24.316 6.59255C22.7443 5.94824 21.0568 5.63483 19.3586 5.67188C17.8741 5.63569 16.3967 5.88651 15.0073 6.41055C12.9493 7.22388 10.5273 9.07255 10.674 13.2585C10.6988 13.9867 10.8525 14.7047 11.128 15.3792C11.2033 18.5866 11.5273 23.1279 13.2866 26.4759ZM29.9133 12.8005C30.38 13.0826 30.622 13.8672 30.622 15.0672C30.622 20.5599 25.362 24.9139 24.3953 25.6672H18.6666C18.4898 25.6672 18.3202 25.7375 18.1952 25.8625C18.0702 25.9875 18 26.1571 18 26.3339C18 26.5107 18.0702 26.6803 18.1952 26.8053C18.3202 26.9303 18.4898 27.0005 18.6666 27.0005H23.9533V29.0005H18.9906C18.8138 29.0005 18.6442 29.0708 18.5192 29.1958C18.3942 29.3208 18.324 29.4904 18.324 29.6672C18.324 29.844 18.3942 30.0136 18.5192 30.1386C18.6442 30.2636 18.8138 30.3339 18.9906 30.3339H23.9533V31.6672C23.9533 31.844 23.883 32.0136 23.758 32.1386C23.633 32.2636 23.4634 32.3339 23.2866 32.3339H15.2866C15.1098 32.3339 14.9402 32.2636 14.8152 32.1386C14.6902 32.0136 14.62 31.844 14.62 31.6672V27.0005H16C16.1768 27.0005 16.3463 26.9303 16.4714 26.8053C16.5964 26.6803 16.6666 26.5107 16.6666 26.3339C16.6666 26.1571 16.5964 25.9875 16.4714 25.8625C16.3463 25.7375 16.1768 25.6672 16 25.6672H14.3773C13.1806 23.2799 12.728 20.2199 12.556 17.5545C14.4892 19.4858 17.1087 20.5726 19.8413 20.5772C22.9746 20.5772 26.4353 19.1032 27.604 14.7899C27.764 14.2126 27.8773 13.6232 27.9433 13.0279C28.8106 12.6346 29.5033 12.5512 29.9133 12.8005ZM15.4993 7.65055C16.6593 7.21922 17.886 6.99855 19.1233 7.00055C20.7141 6.93555 22.3005 7.21149 23.776 7.80988C26.3453 8.95255 27.2 11.1832 26.318 14.4405C25.178 18.6459 21.5093 19.6219 18.4566 19.1332C15.9493 18.7332 13.3833 17.2359 12.4113 14.9912C12.3999 14.9611 12.3863 14.932 12.3706 14.9039C12.1487 14.3665 12.0249 13.7936 12.0053 13.2126C11.9113 10.4759 13.0866 8.60455 15.4993 7.65055Z" fill="#D10C35"/>
<path d="M2.85467 36.1227C2.81777 36.3498 2.84053 36.5826 2.92072 36.7983C3.00091 37.014 3.13577 37.2052 3.31208 37.3531C3.4884 37.5009 3.70011 37.6005 3.92648 37.6419C4.15284 37.6833 4.38608 37.6652 4.60333 37.5893L10.514 35.5513C13.4797 36.9521 16.7201 37.6749 20 37.6673C31.028 37.6673 40 29.742 40 20.0007C40 10.2593 31.028 2.33398 20 2.33398C8.972 2.33398 0 10.2593 0 20.0007C0.012289 23.7851 1.35292 27.445 3.788 30.342L2.85467 36.1227ZM1.33333 20.0007C1.33333 10.9947 9.70733 3.66732 20 3.66732C30.2927 3.66732 38.6667 10.9947 38.6667 20.0007C38.6667 29.0067 30.2927 36.334 20 36.334C16.9193 36.3423 13.8755 35.6645 11.0893 34.35C10.9348 34.2744 10.7668 34.2301 10.5951 34.2196C10.4233 34.2092 10.2512 34.2329 10.0887 34.2893L4.17133 36.334L5.10467 30.5547C5.13406 30.369 5.12377 30.1793 5.07447 29.998C5.02517 29.8166 4.93799 29.6478 4.81867 29.5027C2.58132 26.8404 1.34803 23.4781 1.33333 20.0007Z" fill="#D10C35"/>
</svg>
