<svg width="35" height="35" viewBox="0 0 35 35" fill="none" xmlns="http://www.w3.org/2000/svg">
<path d="M28.1438 21.466C27.3871 21.0342 26.6031 20.8978 25.9371 21.0828C25.4365 21.2216 25.0285 21.5383 24.7533 21.9997C24.1484 22.7232 23.3976 23.5689 23.2161 23.7C21.8123 24.6513 20.6956 24.5392 19.4834 23.327L12.6709 16.5157C11.4581 15.3029 11.3466 14.1862 12.2967 12.7848C12.4295 12.6009 13.2752 11.8507 13.9988 11.2452C14.4602 10.97 14.7769 10.562 14.9156 10.0614C15.1001 9.39542 14.9643 8.61199 14.529 7.84872C14.4264 7.67317 11.9841 3.53718 9.73408 2.34691C9.18168 2.05208 8.54895 1.94316 7.92976 2.03632C7.31057 2.12947 6.7379 2.41974 6.29671 2.86405L4.79152 4.36805C2.41098 6.74859 1.54926 9.44642 2.22891 12.3862C2.79588 14.8367 4.44814 17.4444 7.14063 20.1363L15.8616 28.8579C19.2788 32.2751 22.5382 33.9914 25.5273 33.9914C27.7222 33.9914 29.7718 33.065 31.6304 31.207L33.135 29.7024C33.5794 29.2612 33.8697 28.6885 33.9629 28.0693C34.0561 27.4501 33.9471 26.8174 33.6522 26.265C32.4607 24.0143 28.3253 21.5727 28.1438 21.466ZM32.2958 28.8638L30.7912 30.3684C26.8954 34.263 22.1545 33.473 16.7002 28.0193L7.97922 19.2977C5.44626 16.7648 3.90074 14.3492 3.38478 12.1193C2.79469 9.56859 3.52949 7.30785 5.63011 5.20664L7.1347 3.70205C7.39734 3.4384 7.7378 3.26621 8.1058 3.21089C8.4738 3.15557 8.84984 3.22006 9.17838 3.39484C11.1313 4.42854 13.4816 8.40857 13.5018 8.44237C13.7681 8.90911 13.8695 9.39601 13.7728 9.74473C13.7135 9.95823 13.5807 10.1207 13.3672 10.2405L13.2782 10.3022C12.7723 10.7245 11.5684 11.7457 11.3164 12.1176C10.9534 12.6537 10.7126 13.1803 10.5863 13.6981C10.1646 12.8571 9.82363 11.8833 9.71154 10.8033C9.6939 10.6475 9.6158 10.5047 9.49404 10.4058C9.37227 10.3069 9.21656 10.2597 9.06036 10.2743C8.90385 10.2908 8.76026 10.3686 8.66109 10.4908C8.56191 10.613 8.51526 10.7696 8.53135 10.9261C8.95954 15.0496 12.1662 17.7338 12.3026 17.8459C12.3174 17.8578 12.3346 17.8625 12.3501 17.8726L18.6442 24.1668C18.6709 24.1934 18.6988 24.2172 18.7255 24.2433C18.7462 24.2735 18.7599 24.3073 18.7871 24.3346C18.8992 24.4455 21.5769 27.0431 25.666 27.4677C25.8193 27.4779 25.9706 27.4282 26.0881 27.3291C26.2055 27.2301 26.28 27.0893 26.2958 26.9365C26.3116 26.7837 26.2676 26.6306 26.1729 26.5096C26.0782 26.3886 25.9403 26.309 25.7882 26.2875C24.5345 26.1577 23.4237 25.79 22.4979 25.3635C22.9516 25.2271 23.413 25.0006 23.8809 24.6839C24.2534 24.4313 25.2746 23.2279 25.6963 22.7221L25.758 22.6325C25.8778 22.4196 26.0402 22.2868 26.2538 22.2269C26.6025 22.1326 27.0894 22.2316 27.5502 22.4937C27.5899 22.5175 31.5699 24.8677 32.6036 26.8207C32.779 27.149 32.8437 27.5252 32.7882 27.8932C32.7328 28.2613 32.5601 28.6017 32.2958 28.8638Z" fill="#D10C35"/>
</svg>
