<svg width="35" height="35" viewBox="0 0 35 35" fill="none" xmlns="http://www.w3.org/2000/svg">
<g clip-path="url(#clip0_41_156)">
<path d="M32.0833 2.96917V1.75C32.0833 1.28587 31.899 0.840752 31.5708 0.512563C31.2426 0.184374 30.7975 0 30.3333 0C29.8692 0 29.4241 0.184374 29.0959 0.512563C28.7677 0.840752 28.5833 1.28587 28.5833 1.75V2.91667H25.6667V1.75C25.6667 1.28587 25.4823 0.840752 25.1541 0.512563C24.8259 0.184374 24.3808 0 23.9167 0C23.4525 0 23.0074 0.184374 22.6792 0.512563C22.351 0.840752 22.1667 1.28587 22.1667 1.75V2.91667H19.25V1.75C19.25 1.28587 19.0656 0.840752 18.7374 0.512563C18.4092 0.184374 17.9641 0 17.5 0C17.0359 0 16.5908 0.184374 16.2626 0.512563C15.9344 0.840752 15.75 1.28587 15.75 1.75V2.91667H12.8333V1.75C12.8333 1.28587 12.649 0.840752 12.3208 0.512563C11.9926 0.184374 11.5475 0 11.0833 0C10.6192 0 10.1741 0.184374 9.8459 0.512563C9.51771 0.840752 9.33333 1.28587 9.33333 1.75V2.91667H6.41667V1.75C6.41667 1.28587 6.23229 0.840752 5.9041 0.512563C5.57591 0.184374 5.1308 0 4.66667 0C4.20254 0 3.75742 0.184374 3.42923 0.512563C3.10104 0.840752 2.91667 1.28587 2.91667 1.75V2.96917C2.10202 3.10757 1.36251 3.52947 0.828798 4.16032C0.295089 4.79116 0.00153409 5.59034 0 6.41667L0 32.6667C0 33.2855 0.245833 33.879 0.683417 34.3166C1.121 34.7542 1.71449 35 2.33333 35H32.6667C33.2855 35 33.879 34.7542 34.3166 34.3166C34.7542 33.879 35 33.2855 35 32.6667V6.41667C34.9985 5.59034 34.7049 4.79116 34.1712 4.16032C33.6375 3.52947 32.898 3.10757 32.0833 2.96917ZM29.75 1.75C29.75 1.59529 29.8115 1.44692 29.9209 1.33752C30.0302 1.22812 30.1786 1.16667 30.3333 1.16667C30.488 1.16667 30.6364 1.22812 30.7458 1.33752C30.8552 1.44692 30.9167 1.59529 30.9167 1.75V5.25C30.9167 5.40471 30.8552 5.55308 30.7458 5.66248C30.6364 5.77187 30.488 5.83333 30.3333 5.83333C30.1786 5.83333 30.0302 5.77187 29.9209 5.66248C29.8115 5.55308 29.75 5.40471 29.75 5.25V1.75ZM23.3333 1.75C23.3333 1.59529 23.3948 1.44692 23.5042 1.33752C23.6136 1.22812 23.762 1.16667 23.9167 1.16667C24.0714 1.16667 24.2197 1.22812 24.3291 1.33752C24.4385 1.44692 24.5 1.59529 24.5 1.75V5.25C24.5 5.40471 24.4385 5.55308 24.3291 5.66248C24.2197 5.77187 24.0714 5.83333 23.9167 5.83333C23.762 5.83333 23.6136 5.77187 23.5042 5.66248C23.3948 5.55308 23.3333 5.40471 23.3333 5.25V1.75ZM16.9167 1.75C16.9167 1.59529 16.9781 1.44692 17.0875 1.33752C17.1969 1.22812 17.3453 1.16667 17.5 1.16667C17.6547 1.16667 17.8031 1.22812 17.9125 1.33752C18.0219 1.44692 18.0833 1.59529 18.0833 1.75V5.25C18.0833 5.40471 18.0219 5.55308 17.9125 5.66248C17.8031 5.77187 17.6547 5.83333 17.5 5.83333C17.3453 5.83333 17.1969 5.77187 17.0875 5.66248C16.9781 5.55308 16.9167 5.40471 16.9167 5.25V1.75ZM10.5 1.75C10.5 1.59529 10.5615 1.44692 10.6709 1.33752C10.7802 1.22812 10.9286 1.16667 11.0833 1.16667C11.238 1.16667 11.3864 1.22812 11.4958 1.33752C11.6052 1.44692 11.6667 1.59529 11.6667 1.75V5.25C11.6667 5.40471 11.6052 5.55308 11.4958 5.66248C11.3864 5.77187 11.238 5.83333 11.0833 5.83333C10.9286 5.83333 10.7802 5.77187 10.6709 5.66248C10.5615 5.55308 10.5 5.40471 10.5 5.25V1.75ZM4.08333 1.75C4.08333 1.59529 4.14479 1.44692 4.25419 1.33752C4.36358 1.22812 4.51196 1.16667 4.66667 1.16667C4.82138 1.16667 4.96975 1.22812 5.07915 1.33752C5.18854 1.44692 5.25 1.59529 5.25 1.75V5.25C5.25 5.40471 5.18854 5.55308 5.07915 5.66248C4.96975 5.77187 4.82138 5.83333 4.66667 5.83333C4.51196 5.83333 4.36358 5.77187 4.25419 5.66248C4.14479 5.55308 4.08333 5.40471 4.08333 5.25V1.75ZM32.6667 33.8333H2.33333C2.02391 33.8333 1.72717 33.7104 1.50838 33.4916C1.28958 33.2728 1.16667 32.9761 1.16667 32.6667V10.5H9.91667C10.0714 10.5 10.2197 10.4385 10.3291 10.3291C10.4385 10.2197 10.5 10.0714 10.5 9.91667C10.5 9.76196 10.4385 9.61358 10.3291 9.50419C10.2197 9.39479 10.0714 9.33333 9.91667 9.33333H1.16667V6.41667C1.1686 5.90087 1.34138 5.40026 1.65801 4.99308C1.97463 4.5859 2.41725 4.29511 2.91667 4.16617V5.25C2.91667 5.71413 3.10104 6.15925 3.42923 6.48744C3.75742 6.81563 4.20254 7 4.66667 7C5.1308 7 5.57591 6.81563 5.9041 6.48744C6.23229 6.15925 6.41667 5.71413 6.41667 5.25V4.08333H9.33333V5.25C9.33333 5.71413 9.51771 6.15925 9.8459 6.48744C10.1741 6.81563 10.6192 7 11.0833 7C11.5475 7 11.9926 6.81563 12.3208 6.48744C12.649 6.15925 12.8333 5.71413 12.8333 5.25V4.08333H15.75V5.25C15.75 5.71413 15.9344 6.15925 16.2626 6.48744C16.5908 6.81563 17.0359 7 17.5 7C17.9641 7 18.4092 6.81563 18.7374 6.48744C19.0656 6.15925 19.25 5.71413 19.25 5.25V4.08333H22.1667V5.25C22.1667 5.71413 22.351 6.15925 22.6792 6.48744C23.0074 6.81563 23.4525 7 23.9167 7C24.3808 7 24.8259 6.81563 25.1541 6.48744C25.4823 6.15925 25.6667 5.71413 25.6667 5.25V4.08333H28.5833V5.25C28.5833 5.71413 28.7677 6.15925 29.0959 6.48744C29.4241 6.81563 29.8692 7 30.3333 7C30.7975 7 31.2426 6.81563 31.5708 6.48744C31.899 6.15925 32.0833 5.71413 32.0833 5.25V4.16617C32.5827 4.29511 33.0254 4.5859 33.342 4.99308C33.6586 5.40026 33.8314 5.90087 33.8333 6.41667V9.33333H25.6667C25.512 9.33333 25.3636 9.39479 25.2542 9.50419C25.1448 9.61358 25.0833 9.76196 25.0833 9.91667C25.0833 10.0714 25.1448 10.2197 25.2542 10.3291C25.3636 10.4385 25.512 10.5 25.6667 10.5H33.8333V32.6667C33.8333 32.9761 33.7104 33.2728 33.4916 33.4916C33.2728 33.7104 32.9761 33.8333 32.6667 33.8333Z" fill="#D10C35"/>
<path d="M32.0833 11.6669H29.1666C29.0119 11.6669 28.8636 11.7283 28.7542 11.8377C28.6448 11.9471 28.5833 12.0955 28.5833 12.2502C28.5833 12.4049 28.6448 12.5533 28.7542 12.6627C28.8636 12.7721 29.0119 12.8335 29.1666 12.8335H31.5V31.5002H29.1666C29.0119 31.5002 28.8636 31.5617 28.7542 31.671C28.6448 31.7804 28.5833 31.9288 28.5833 32.0835C28.5833 32.2382 28.6448 32.3866 28.7542 32.496C28.8636 32.6054 29.0119 32.6669 29.1666 32.6669H32.0833C32.238 32.6669 32.3864 32.6054 32.4958 32.496C32.6052 32.3866 32.6666 32.2382 32.6666 32.0835V12.2502C32.6666 12.0955 32.6052 11.9471 32.4958 11.8377C32.3864 11.7283 32.238 11.6669 32.0833 11.6669ZM5.8333 12.8335C5.98801 12.8335 6.13638 12.7721 6.24578 12.6627C6.35517 12.5533 6.41663 12.4049 6.41663 12.2502C6.41663 12.0955 6.35517 11.9471 6.24578 11.8377C6.13638 11.7283 5.98801 11.6669 5.8333 11.6669H2.91663C2.76192 11.6669 2.61355 11.7283 2.50415 11.8377C2.39476 11.9471 2.3333 12.0955 2.3333 12.2502V32.0835C2.3333 32.2382 2.39476 32.3866 2.50415 32.496C2.61355 32.6054 2.76192 32.6669 2.91663 32.6669H5.8333C5.98801 32.6669 6.13638 32.6054 6.24578 32.496C6.35517 32.3866 6.41663 32.2382 6.41663 32.0835C6.41663 31.9288 6.35517 31.7804 6.24578 31.671C6.13638 31.5617 5.98801 31.5002 5.8333 31.5002H3.49996V12.8335H5.8333ZM12.8765 15.2929H12.8969C12.9734 15.2902 13.0487 15.2725 13.1185 15.2408C13.1882 15.2091 13.251 15.1639 13.3033 15.1079C13.3555 15.0519 13.3963 14.9861 13.4231 14.9144C13.45 14.8426 13.4624 14.7663 13.4598 14.6897C13.4131 13.341 13.8016 12.6305 14.8446 12.1563C14.9851 12.092 15.0943 11.9747 15.1484 11.8301C15.2024 11.6854 15.197 11.5252 15.1331 11.3846C15.0692 11.244 14.9522 11.1344 14.8077 11.08C14.6632 11.0255 14.503 11.0306 14.3622 11.094C12.8881 11.7643 12.2313 12.9193 12.2937 14.7299C12.299 14.881 12.3627 15.0241 12.4714 15.1291C12.5801 15.2341 12.7253 15.2928 12.8765 15.2929Z" fill="#D10C35"/>
<path d="M28.5833 16.3916C28.5833 14.8913 28.1861 13.8885 27.4032 13.4125C27.0496 13.2277 26.6587 13.1253 26.2598 13.113C25.861 13.1008 25.4645 13.1791 25.1002 13.342C25.0421 12.384 24.7095 11.463 24.1421 10.6889C23.5748 9.91474 22.7967 9.32024 21.9007 8.9763C20.5256 8.41225 19.0489 8.138 17.563 8.17071C16.2642 8.14051 14.9717 8.35992 13.7556 8.81705C11.9554 9.52871 9.83558 11.1463 9.96391 14.809C9.98576 15.4462 10.1205 16.0745 10.3617 16.6646C10.4282 19.4716 10.7117 23.4447 12.2512 26.3748V30.9166C12.2512 31.3808 12.4355 31.8259 12.7637 32.1541C13.0919 32.4823 13.537 32.6666 14.0012 32.6666H21C21.4641 32.6666 21.9092 32.4823 22.2374 32.1541C22.5656 31.8259 22.75 31.3808 22.75 30.9166V26.5416C23.8852 25.652 28.5833 21.6597 28.5833 16.3916ZM14.1843 9.90205C15.1986 9.52441 16.2724 9.33177 17.3547 9.3333C18.7466 9.27788 20.1349 9.51996 21.4264 10.0415C23.674 11.0413 24.4224 12.9931 23.6501 15.8433C22.6532 19.523 19.4431 20.377 16.772 19.9494C14.5775 19.5994 12.3322 18.2886 11.4817 16.3245C11.4718 16.2965 11.4595 16.2694 11.445 16.2435C11.2522 15.7747 11.1446 15.2753 11.1271 14.7688C11.0454 12.3742 12.075 10.7368 14.1843 9.90205ZM21.9683 25.6666H16.9557C16.801 25.6666 16.6527 25.7281 16.5433 25.8375C16.4339 25.9469 16.3724 26.0953 16.3724 26.25C16.3724 26.4047 16.4339 26.553 16.5433 26.6624C16.6527 26.7718 16.801 26.8333 16.9557 26.8333H21.5833V28.5833H17.2398C17.0851 28.5833 16.9367 28.6448 16.8274 28.7542C16.718 28.8635 16.6565 29.0119 16.6565 29.1666C16.6565 29.3213 16.718 29.4697 16.8274 29.5791C16.9367 29.6885 17.0851 29.75 17.2398 29.75H21.5816V30.9166C21.5816 31.0713 21.5201 31.2197 21.4107 31.3291C21.3013 31.4385 21.153 31.5 20.9982 31.5H14C13.8453 31.5 13.6969 31.4385 13.5875 31.3291C13.4781 31.2197 13.4167 31.0713 13.4167 30.9166V26.8333H14.6242C14.7789 26.8333 14.9272 26.7718 15.0366 26.6624C15.146 26.553 15.2075 26.4047 15.2075 26.25C15.2075 26.0953 15.146 25.9469 15.0366 25.8375C14.9272 25.7281 14.7789 25.6666 14.6242 25.6666H13.2032C12.1532 23.5771 11.7594 20.8996 11.6089 18.568C13.3005 20.2578 15.5926 21.2088 17.9836 21.2129C20.7287 21.2129 23.7539 19.9231 24.7765 16.149C24.9153 15.6438 25.0145 15.1281 25.0728 14.6072C25.8312 14.263 26.4378 14.1901 26.7972 14.4089C27.2055 14.6556 27.4167 15.3422 27.4167 16.3922C27.4167 21.1977 22.8142 25.0075 21.9683 25.6666Z" fill="#D10C35"/>
</g>
<defs>
<clipPath id="clip0_41_156">
<rect width="35" height="35" fill="white"/>
</clipPath>
</defs>
</svg>
