<svg width="40" height="40" viewBox="0 0 40 40" fill="none" xmlns="http://www.w3.org/2000/svg">
<path d="M18.5187 39.372C18.7109 39.5706 18.9411 39.7286 19.1955 39.8364C19.45 39.9443 19.7236 39.9999 20 39.9999C20.2764 39.9999 20.55 39.9443 20.8045 39.8364C21.0589 39.7286 21.2891 39.5706 21.4813 39.372C24.9073 36.654 35.3333 28.384 35.3333 15.3333C35.3333 6.86467 28.4687 0 20 0C11.5313 0 4.66666 6.86467 4.66666 15.3333C4.66666 28.384 15.0927 36.654 18.5187 39.372ZM20 1.33333C27.728 1.342 33.9913 7.60533 34 15.3333C34 27.74 23.954 35.7087 20.6527 38.3273C20.472 38.4393 20.3427 38.6667 20 38.6667C19.6573 38.6667 19.52 38.434 19.3473 38.3273C16.046 35.7087 6 27.74 6 15.3333C6.00866 7.60533 12.272 1.342 20 1.33333Z" fill="#D10C35"/>
<path d="M23.2867 31.3332C23.8171 31.3332 24.3258 31.1225 24.7009 30.7474C25.076 30.3724 25.2867 29.8637 25.2867 29.3332V24.3332C26.5847 23.3179 31.9533 18.7559 31.9533 12.7332C31.9533 11.0186 31.4993 9.87257 30.6047 9.3279C30.2004 9.11689 29.7536 9.00008 29.2978 8.98623C28.842 8.97237 28.389 9.06183 27.9727 9.2479C27.9059 8.15315 27.5256 7.10071 26.8773 6.21607C26.2289 5.33143 25.3398 4.65192 24.316 4.25857C22.7444 3.61416 21.0568 3.30075 19.3587 3.3379C17.8742 3.30171 16.3967 3.55252 15.0073 4.07657C12.9493 4.8899 10.5273 6.73857 10.674 10.9246C10.6988 11.6527 10.8525 12.3707 11.128 13.0452C11.204 16.2526 11.528 20.7939 13.2873 24.1419V29.3332C13.2873 29.8637 13.498 30.3724 13.8731 30.7474C14.2482 31.1225 14.7569 31.3332 15.2873 31.3332H23.2867ZM15.4993 5.31657C16.6593 4.88523 17.886 4.66457 19.1233 4.66657C20.7142 4.60117 22.3007 4.87713 23.776 5.4759C26.3453 6.61857 27.2 8.84923 26.318 12.1066C25.1787 16.3112 21.508 17.2879 18.4567 16.7992C15.948 16.3992 13.38 14.8999 12.4093 12.6532C12.3986 12.626 12.3862 12.5995 12.372 12.5739C12.1492 12.0353 12.0251 11.4611 12.0053 10.8786C11.9113 8.1419 13.0867 6.27057 15.4993 5.31657ZM14.62 29.3332V24.6666H16C16.1768 24.6666 16.3464 24.5963 16.4714 24.4713C16.5964 24.3463 16.6667 24.1767 16.6667 23.9999C16.6667 23.8231 16.5964 23.6535 16.4714 23.5285C16.3464 23.4035 16.1768 23.3332 16 23.3332H14.3773C13.1807 20.9459 12.728 17.8859 12.556 15.2206C14.0949 16.7682 16.0885 17.783 18.2453 18.1166C18.7733 18.2006 19.3067 18.2432 19.8413 18.2432C22.9747 18.2432 26.4353 16.7692 27.604 12.4559C27.764 11.8786 27.8773 11.2892 27.9433 10.6939C28.81 10.3006 29.504 10.2172 29.9133 10.4672C30.38 10.7492 30.622 11.5339 30.622 12.7339C30.622 18.2266 25.362 22.5806 24.3953 23.3339H18.6667C18.4899 23.3339 18.3203 23.4041 18.1953 23.5292C18.0702 23.6542 18 23.8238 18 24.0006C18 24.1774 18.0702 24.3469 18.1953 24.472C18.3203 24.597 18.4899 24.6672 18.6667 24.6672H23.9533V26.6672H18.9907C18.8139 26.6672 18.6443 26.7375 18.5193 26.8625C18.3942 26.9875 18.324 27.1571 18.324 27.3339C18.324 27.5107 18.3942 27.6803 18.5193 27.8053C18.6443 27.9303 18.8139 28.0006 18.9907 28.0006H23.9533V29.3339C23.9533 29.5107 23.8831 29.6803 23.7581 29.8053C23.633 29.9303 23.4635 30.0006 23.2867 30.0006H15.2867C15.1991 30.0006 15.1123 29.9833 15.0314 29.9498C14.9505 29.9162 14.8769 29.867 14.815 29.8051C14.7531 29.7431 14.704 29.6695 14.6706 29.5886C14.6371 29.5076 14.6199 29.4208 14.62 29.3332Z" fill="#D10C35"/>
<path d="M14.004 11.4776H14.028C14.2046 11.4714 14.3715 11.3952 14.492 11.266C14.6125 11.1367 14.6768 10.9649 14.6707 10.7883C14.6173 9.24694 15.0613 8.43494 16.254 7.89294C16.3337 7.8567 16.4055 7.80511 16.4653 7.74112C16.5251 7.67713 16.5716 7.60199 16.6024 7.51999C16.6331 7.438 16.6474 7.35076 16.6444 7.26324C16.6414 7.17573 16.6212 7.08965 16.585 7.00994C16.5488 6.93023 16.4972 6.85844 16.4332 6.79866C16.3692 6.73889 16.294 6.6923 16.2121 6.66157C16.1301 6.63083 16.0428 6.61655 15.9553 6.61953C15.8678 6.62251 15.7817 6.6427 15.702 6.67894C14.0173 7.44494 13.266 8.76494 13.3387 10.8343C13.3447 11.0068 13.4174 11.1702 13.5415 11.2902C13.6656 11.4102 13.8314 11.4774 14.004 11.4776ZM22.6667 32.6669H17.3333C17.2015 32.667 17.0726 32.7061 16.963 32.7793C16.8534 32.8526 16.768 32.9567 16.7175 33.0785C16.6671 33.2003 16.6539 33.3343 16.6796 33.4636C16.7053 33.5929 16.7688 33.7117 16.862 33.8049L19.5287 36.4716C19.6537 36.5966 19.8232 36.6668 20 36.6668C20.1768 36.6668 20.3463 36.5966 20.4713 36.4716L23.138 33.8049C23.2312 33.7117 23.2947 33.5929 23.3204 33.4636C23.3461 33.3343 23.3329 33.2003 23.2825 33.0785C23.232 32.9567 23.1466 32.8526 23.037 32.7793C22.9274 32.7061 22.7985 32.667 22.6667 32.6669ZM20 35.0576L18.9427 34.0003H21.0573L20 35.0576Z" fill="#D10C35"/>
</svg>
