<svg width="60" height="60" viewBox="0 0 60 60" fill="none" xmlns="http://www.w3.org/2000/svg">
<g clip-path="url(#clip0_2007_1625)">
<g filter="url(#filter0_d_2007_1625)">
<path d="M49.001 53.0004H48.001V46.4704C48.0018 46.1769 47.9377 45.8868 47.8134 45.621C47.6892 45.3551 47.5077 45.12 47.282 44.9324L41.921 40.4624C41.5614 40.1635 41.1085 40 40.641 40.0004H36.884C37.002 39.6804 37.064 39.3414 37.068 39.0004V31.4944C39.009 29.9654 47.001 23.1254 47.001 14.1004C47.001 11.5284 46.32 9.80935 44.978 8.99335C44.3718 8.6764 43.7016 8.50085 43.0179 8.4799C42.3341 8.45894 41.6545 8.59312 41.03 8.87235C40.9303 7.23009 40.3601 5.6512 39.3875 4.32416C38.4149 2.99711 37.081 1.97796 35.545 1.38835C33.1881 0.419971 30.6564 -0.0502204 28.109 0.00735091C25.8825 -0.0440615 23.6668 0.332067 21.582 1.11535C18.496 2.33535 14.862 5.10835 15.082 11.3874C15.1195 12.4834 15.3522 13.564 15.769 14.5784C15.925 18.9434 18.101 25.8574 21.001 31.2484V39.0004C21.004 39.3414 21.067 39.6804 21.185 40.0004H19.361C18.8934 40 18.4405 40.1635 18.081 40.4624L12.724 44.9294C12.264 45.3094 12 45.8744 12.001 46.4704V53.0004H11.001C10.4705 53.0004 9.96184 53.2111 9.58676 53.5861C9.21169 53.9612 9.00098 54.4699 9.00098 55.0004V58.0004C9.00098 58.5308 9.21169 59.0395 9.58676 59.4146C9.96184 59.7896 10.4705 60.0004 11.001 60.0004H49.001C49.5314 60.0004 50.0401 59.7896 50.4152 59.4146C50.7903 59.0395 51.001 58.5308 51.001 58.0004V55.0004C51.001 54.4699 50.7903 53.9612 50.4152 53.5861C50.0401 53.2111 49.5314 53.0004 49.001 53.0004ZM22.317 2.97535C24.0558 2.32797 25.8966 1.99774 27.752 2.00035C30.1384 1.90535 32.5178 2.31918 34.732 3.21435C38.585 4.92835 39.868 8.27435 38.544 13.1604C36.835 19.4684 31.332 20.9324 26.753 20.1994C22.991 19.5994 19.14 17.3514 17.683 13.9834C17.6672 13.9393 17.6474 13.8968 17.624 13.8564C17.2915 13.0498 17.1059 12.1903 17.076 11.3184C16.936 7.21335 18.701 4.40635 22.317 2.97535ZM23.001 39.0004V32.0004H23.138C23.4032 32.0004 23.6575 31.895 23.8451 31.7075C24.0326 31.5199 24.138 31.2656 24.138 31.0004C24.138 30.7351 24.0326 30.4808 23.8451 30.2932C23.6575 30.1057 23.4032 30.0004 23.138 30.0004H22.601C20.6554 26.2698 19.1997 22.3037 18.27 18.2004C21.1353 20.8744 24.9077 22.3631 28.827 22.3664C33.533 22.3664 38.719 20.1554 40.472 13.6854C40.71 12.8194 40.88 11.9354 40.98 11.0424C42.28 10.4524 43.32 10.3284 43.936 10.7024C44.63 11.1254 44.998 12.3024 44.998 14.1024C44.998 22.3394 37.17 28.8664 35.724 30.0024H27.138C26.8728 30.0024 26.6184 30.1077 26.4309 30.2952C26.2433 30.4828 26.138 30.7371 26.138 31.0024C26.138 31.2676 26.2433 31.5219 26.4309 31.7095C26.6184 31.897 26.8728 32.0024 27.138 32.0024H35.068V35.0024H28.555C28.2898 35.0024 28.0354 35.1077 27.8479 35.2952C27.6603 35.4828 27.555 35.7371 27.555 36.0024C27.555 36.2676 27.6603 36.5219 27.8479 36.7095C28.0354 36.897 28.2898 37.0024 28.555 37.0024H35.068V39.0024C35.068 39.2676 34.9626 39.5219 34.7751 39.7095C34.5876 39.897 34.3332 40.0024 34.068 40.0024H24.001C23.8695 40.0024 23.7393 39.9764 23.6178 39.926C23.4964 39.8757 23.386 39.8018 23.2932 39.7088C23.2003 39.6157 23.1267 39.5052 23.0765 39.3837C23.0264 39.2621 23.0007 39.1318 23.001 39.0004ZM49.001 58.0004H11.001V55.0004H19.001C19.2662 55.0004 19.5205 54.895 19.7081 54.7075C19.8956 54.5199 20.001 54.2656 20.001 54.0004C20.001 53.7351 19.8956 53.4808 19.7081 53.2932C19.5205 53.1057 19.2662 53.0004 19.001 53.0004H14.001V46.4684L19.361 42.0004H40.64L46.001 46.4704V53.0004H24.001C23.7358 53.0004 23.4814 53.1057 23.2939 53.2932C23.1063 53.4808 23.001 53.7351 23.001 54.0004C23.001 54.2656 23.1063 54.5199 23.2939 54.7075C23.4814 54.895 23.7358 55.0004 24.001 55.0004H49.001V58.0004Z" fill="#D10C35"/>
</g>
<g filter="url(#filter1_d_2007_1625)">
<path d="M41.001 50.0006V45.0006C41.001 44.7354 40.8956 44.481 40.7081 44.2935C40.5206 44.1059 40.2662 44.0006 40.001 44.0006H20.001C19.7358 44.0006 19.4814 44.1059 19.2939 44.2935C19.1063 44.481 19.001 44.7354 19.001 45.0006V50.0006C19.001 50.2658 19.1063 50.5202 19.2939 50.7077C19.4814 50.8952 19.7358 51.0006 20.001 51.0006H40.001C40.2662 51.0006 40.5206 50.8952 40.7081 50.7077C40.8956 50.5202 41.001 50.2658 41.001 50.0006ZM39.001 49.0006H21.001V46.0006H39.001V49.0006ZM20.075 12.2166H20.11C20.2412 12.2121 20.3703 12.1817 20.4899 12.1273C20.6094 12.0729 20.717 11.9955 20.8067 11.8995C20.8963 11.8034 20.9661 11.6907 21.0121 11.5677C21.0582 11.4447 21.0795 11.3138 21.075 11.1826C20.995 8.87058 21.661 7.65258 23.449 6.83958C23.6897 6.72945 23.877 6.52835 23.9697 6.28037C24.0624 6.03238 24.053 5.75776 23.9435 5.51671C23.834 5.27566 23.6334 5.08786 23.3857 4.99448C23.138 4.90111 22.8633 4.90977 22.622 5.01858C20.095 6.16758 18.969 8.14758 19.076 11.2516C19.085 11.5105 19.1943 11.7558 19.3806 11.9358C19.567 12.1158 19.8159 12.2165 20.075 12.2166ZM32.554 28.9006C32.7913 29.0191 33.0661 29.0385 33.3178 28.9545C33.5694 28.8705 33.7774 28.69 33.896 28.4526C34.0145 28.2152 34.0339 27.9405 33.9499 27.6888C33.8659 27.4371 33.6853 27.2291 33.448 27.1106L31.237 26.0006L33.448 24.9006C33.5655 24.8419 33.6703 24.7606 33.7565 24.6614C33.8426 24.5622 33.9083 24.447 33.9499 24.3224C33.9915 24.1978 34.0082 24.0662 33.9989 23.9351C33.9897 23.8041 33.9547 23.6761 33.896 23.5586C33.8373 23.4411 33.756 23.3362 33.6568 23.2501C33.5576 23.164 33.4424 23.0982 33.3178 23.0566C33.1931 23.015 33.0616 22.9984 32.9305 23.0077C32.7995 23.0169 32.6715 23.0519 32.554 23.1106L29.001 24.8826L25.448 23.1056C25.3304 23.0469 25.2025 23.0119 25.0715 23.0027C24.9404 22.9934 24.8088 23.01 24.6842 23.0516C24.5596 23.0932 24.4444 23.159 24.3452 23.2451C24.246 23.3312 24.1647 23.4361 24.106 23.5536C24.0473 23.6711 24.0123 23.7991 24.003 23.9301C23.9938 24.0612 24.0104 24.1928 24.052 24.3174C24.0936 24.442 24.1594 24.5572 24.2455 24.6564C24.3316 24.7556 24.4364 24.8369 24.554 24.8956L26.765 26.0006L24.554 27.1056C24.4364 27.1643 24.3316 27.2456 24.2455 27.3448C24.1594 27.444 24.0936 27.5592 24.052 27.6838C24.0104 27.8084 23.9938 27.94 24.003 28.0711C24.0123 28.2021 24.0473 28.3301 24.106 28.4476C24.1647 28.5651 24.246 28.6699 24.3452 28.7561C24.4444 28.8422 24.5596 28.9079 24.6842 28.9495C24.8088 28.9911 24.9404 29.0078 25.0715 28.9985C25.2025 28.9893 25.3304 28.9543 25.448 28.8956L29.001 27.1186L32.554 28.9006ZM9.00098 16.0006C9.00098 15.7354 8.89562 15.481 8.70808 15.2935C8.52055 15.1059 8.26619 15.0006 8.00098 15.0006H5.00098C4.73576 15.0006 4.48141 15.1059 4.29387 15.2935C4.10633 15.481 4.00098 15.7354 4.00098 16.0006C4.00098 16.2658 4.10633 16.5202 4.29387 16.7077C4.48141 16.8952 4.73576 17.0006 5.00098 17.0006H8.00098C8.26619 17.0006 8.52055 16.8952 8.70808 16.7077C8.89562 16.5202 9.00098 16.2658 9.00098 16.0006ZM55.001 15.0006H52.001C51.7358 15.0006 51.4814 15.1059 51.2939 15.2935C51.1063 15.481 51.001 15.7354 51.001 16.0006C51.001 16.2658 51.1063 16.5202 51.2939 16.7077C51.4814 16.8952 51.7358 17.0006 52.001 17.0006H55.001C55.2662 17.0006 55.5206 16.8952 55.7081 16.7077C55.8956 16.5202 56.001 16.2658 56.001 16.0006C56.001 15.7354 55.8956 15.481 55.7081 15.2935C55.5206 15.1059 55.2662 15.0006 55.001 15.0006ZM11.814 26.5006C11.6814 26.2709 11.4629 26.1033 11.2068 26.0347C10.9506 25.966 10.6777 26.002 10.448 26.1346L7.84798 27.6346C7.73333 27.6998 7.63271 27.787 7.55191 27.8912C7.47111 27.9954 7.41172 28.1146 7.37717 28.2419C7.34261 28.3692 7.33358 28.502 7.35057 28.6328C7.36757 28.7636 7.41027 28.8897 7.47621 29.0039C7.54215 29.1181 7.63004 29.2182 7.7348 29.2983C7.83956 29.3784 7.95913 29.437 8.08663 29.4707C8.21413 29.5044 8.34704 29.5125 8.4777 29.4947C8.60837 29.4768 8.73421 29.4333 8.84798 29.3666L11.448 27.8666C11.6777 27.734 11.8452 27.5156 11.9139 27.2594C11.9825 27.0032 11.9466 26.7303 11.814 26.5006ZM49.055 6.00058C49.2305 6.00057 49.403 5.95436 49.555 5.86658L52.155 4.36658C52.3828 4.23303 52.5485 4.0148 52.616 3.7595C52.6835 3.5042 52.6473 3.23257 52.5153 3.00389C52.3832 2.7752 52.1661 2.60802 51.9112 2.53883C51.6564 2.46964 51.3845 2.50406 51.155 2.63458L48.555 4.13458C48.3644 4.24465 48.2154 4.41455 48.1311 4.61792C48.0469 4.8213 48.0321 5.04678 48.0891 5.2594C48.1461 5.47203 48.2716 5.65992 48.4462 5.79392C48.6209 5.92793 48.8349 6.00057 49.055 6.00058ZM52.152 27.6346L49.552 26.1346C49.4382 26.0679 49.3124 26.0244 49.1817 26.0065C49.051 25.9886 48.9181 25.9968 48.7906 26.0305C48.6631 26.0642 48.5436 26.1228 48.4388 26.2029C48.334 26.283 48.2462 26.383 48.1802 26.4973C48.1143 26.6115 48.0716 26.7376 48.0546 26.8684C48.0376 26.9992 48.0466 27.132 48.0812 27.2593C48.1157 27.3865 48.1751 27.5057 48.2559 27.61C48.3367 27.7142 48.4373 27.8014 48.552 27.8666L51.152 29.3666C51.3815 29.4971 51.6534 29.5315 51.9082 29.4623C52.1631 29.3931 52.3802 29.226 52.5123 28.9973C52.6443 28.7686 52.6805 28.497 52.613 28.2417C52.5455 27.9864 52.3798 27.7681 52.152 27.6346ZM10.448 5.86658C10.5617 5.93328 10.6876 5.97681 10.8183 5.99468C10.9489 6.01255 11.0818 6.00439 11.2093 5.97068C11.3368 5.93697 11.4564 5.87838 11.5612 5.79827C11.6659 5.71816 11.7538 5.61812 11.8197 5.50391C11.8857 5.3897 11.9284 5.26357 11.9454 5.13279C11.9624 5.00201 11.9533 4.86916 11.9188 4.74189C11.8842 4.61462 11.8248 4.49544 11.744 4.39121C11.6632 4.28698 11.5626 4.19976 11.448 4.13458L8.84798 2.63458C8.73421 2.56788 8.60837 2.52435 8.4777 2.50648C8.34704 2.48862 8.21413 2.49677 8.08663 2.53048C7.95913 2.56419 7.83956 2.62279 7.7348 2.7029C7.63004 2.783 7.54215 2.88304 7.47621 2.99725C7.41027 3.11146 7.36757 3.23759 7.35057 3.36837C7.33358 3.49915 7.34261 3.632 7.37717 3.75927C7.41172 3.88655 7.47111 4.00573 7.55191 4.10996C7.63271 4.21418 7.73333 4.3014 7.84798 4.36658L10.448 5.86658Z" fill="#D10C35"/>
</g>
</g>
<defs>
<filter id="filter0_d_2007_1625" x="5.00098" y="0.00263596" width="50" height="67.9977" filterUnits="userSpaceOnUse" color-interpolation-filters="sRGB">
<feFlood flood-opacity="0" result="BackgroundImageFix"/>
<feColorMatrix in="SourceAlpha" type="matrix" values="0 0 0 0 0 0 0 0 0 0 0 0 0 0 0 0 0 0 127 0" result="hardAlpha"/>
<feOffset dy="4"/>
<feGaussianBlur stdDeviation="2"/>
<feComposite in2="hardAlpha" operator="out"/>
<feColorMatrix type="matrix" values="0 0 0 0 0.819608 0 0 0 0 0.0470588 0 0 0 0 0.207843 0 0 0 0.8 0"/>
<feBlend mode="normal" in2="BackgroundImageFix" result="effect1_dropShadow_2007_1625"/>
<feBlend mode="normal" in="SourceGraphic" in2="effect1_dropShadow_2007_1625" result="shape"/>
</filter>
<filter id="filter1_d_2007_1625" x="0.000976562" y="2.49726" width="60" height="56.5033" filterUnits="userSpaceOnUse" color-interpolation-filters="sRGB">
<feFlood flood-opacity="0" result="BackgroundImageFix"/>
<feColorMatrix in="SourceAlpha" type="matrix" values="0 0 0 0 0 0 0 0 0 0 0 0 0 0 0 0 0 0 127 0" result="hardAlpha"/>
<feOffset dy="4"/>
<feGaussianBlur stdDeviation="2"/>
<feComposite in2="hardAlpha" operator="out"/>
<feColorMatrix type="matrix" values="0 0 0 0 0.819608 0 0 0 0 0.0470588 0 0 0 0 0.207843 0 0 0 0.8 0"/>
<feBlend mode="normal" in2="BackgroundImageFix" result="effect1_dropShadow_2007_1625"/>
<feBlend mode="normal" in="SourceGraphic" in2="effect1_dropShadow_2007_1625" result="shape"/>
</filter>
<clipPath id="clip0_2007_1625">
<rect width="60" height="60" fill="white"/>
</clipPath>
</defs>
</svg>
