<svg width="176" height="50" viewBox="0 0 176 50" fill="none" xmlns="http://www.w3.org/2000/svg">
<g clip-path="url(#clip0_50_765)">
<path d="M12.8262 31.281C12.8262 31.281 11.7011 30.7682 10.2867 30.8644C11.026 30.4157 11.2511 29.4221 11.9261 29.1336C12.6011 28.8451 13.3405 29.4541 14.7227 29.4541C13.5334 29.0375 13.2762 28.4285 13.2762 28.4285C13.2762 28.4285 12.6976 28.7169 12.6333 28.5246C12.5369 28.3323 13.8869 27.5951 14.0155 27.0503C14.4656 27.4028 14.2727 28.0759 14.9477 28.3323C14.4013 27.6913 14.787 27.4349 14.3691 26.6657C13.9512 25.8964 14.4656 25.1272 15.012 24.7426C15.5585 24.3259 15.0763 23.3644 15.9764 23.3323C16.6514 23.3323 16.6836 23.0439 16.6836 23.0439C17.455 23.0118 17.3265 23.8451 18.8694 24.4541C17.7765 24.6464 16.8764 23.781 16.8764 23.781C16.8764 23.781 16.5228 24.7746 17.0693 25.5118C16.3621 24.9669 16.5871 25.2234 15.5263 24.8708C14.787 25.2875 15.237 25.8644 15.237 25.8644C15.012 26.0567 15.4299 26.281 15.1406 26.5054C14.8513 26.6977 14.7227 27.3387 17.0372 27.7234C16.2014 27.9477 16.1692 28.2682 16.1692 28.2682C15.6549 27.3387 15.1085 28.0759 15.3013 28.5567C15.4942 29.0375 15.8478 29.39 16.5228 29.5503C15.6228 30.031 14.9156 29.7426 13.9834 30.031C14.1441 30.2554 13.8548 30.3195 13.4369 30.3836C12.9547 30.5118 12.4083 30.8323 12.8262 31.281Z" fill="#EAEAEA"/>
<path d="M18.5478 22.4036V22.9805C18.5478 22.9805 19.8658 22.8523 21.6016 23.1087C21.5694 22.8523 21.7302 22.628 21.6016 22.5639C21.473 22.4998 20.4443 22.2754 19.8979 22.2754C19.8979 22.2754 20.2193 22.8523 18.9014 22.7882C18.3549 22.7241 18.7085 22.5639 18.5478 22.4036Z" fill="#EAEAEA"/>
<path d="M19.2873 14.6465L19.5123 15.4158L19.0623 15.0632C19.0623 15.0632 19.3838 15.7683 19.2873 15.8965C19.1909 16.0247 17.9372 17.1145 17.6158 16.6658C17.3265 16.217 17.2622 15.5119 17.5193 14.326C17.7765 13.1401 17.6479 12.1786 17.3586 11.8581C17.4229 12.5953 17.1336 13.1081 17.1336 13.1081C15.3335 12.8196 15.4299 12.0824 14.2084 11.7299C13.019 11.3773 12.9869 11.1209 12.7619 10.576C12.5369 10.0311 12.2154 9.83884 12.2154 9.83884C12.2154 9.83884 12.6012 10.0632 13.1476 9.83884C13.5012 10.4478 14.0155 10.4158 14.0155 10.4158L14.3691 11.0888C14.3691 11.0888 14.0798 11.1209 13.4691 11.0888C14.2406 11.3773 14.6584 11.4414 15.1085 11.4094C15.0442 11.826 15.3335 11.9222 15.7514 11.8901C16.5229 12.0824 16.9407 12.2106 17.23 11.4414C18.098 11.217 18.7087 11.4414 18.998 11.794C19.2873 12.1465 19.8338 12.2106 20.316 11.9863C19.3195 11.1209 18.548 10.9927 17.0693 11.217C16.6514 11.3453 15.8478 11.3773 15.3656 10.9286C14.8835 10.4799 14.4977 9.10166 13.3405 9.48628C13.6298 9.22987 13.5334 8.94141 13.5334 8.94141C14.562 9.32602 15.0442 10.1914 15.7835 10.3517C16.5229 10.5119 17.0693 10.9927 17.0693 10.9927C18.6123 10.4158 19.6088 10.8324 20.4445 11.7299H20.6053C20.6053 11.7299 20.4445 12.5312 20.2195 12.7235H20.5088C20.5088 12.7235 20.6374 13.2683 19.8338 14.7106C19.7052 15.0311 19.2873 14.6465 19.2873 14.6465Z" fill="#EAEAEA"/>
<path d="M13.3402 8.01292C13.308 7.78856 13.1473 7.53218 12.9545 7.43603C12.7937 7.21167 12.858 7.08347 12.633 6.95526C12.408 6.82706 11.9258 6.76292 11.4758 6.92318C11.0258 7.08343 10.2543 7.27577 10.3186 7.75654C10.3186 7.75654 10.5436 7.37193 10.8329 7.43603C11.1543 7.17962 11.6687 7.01933 11.8294 7.21164C11.9258 7.05138 12.183 7.05138 12.183 7.05138L12.6973 7.33985C12.6973 7.33985 12.858 7.5001 12.8259 7.82061C12.8902 7.75651 13.1473 8.04497 12.858 8.33344C12.7294 7.91677 12.5366 7.85267 12.3437 7.85267C12.2473 7.85267 12.1508 7.91677 12.1187 7.98087C12.0865 7.94882 12.0865 7.88472 12.0544 7.78856C11.9901 7.5642 12.0544 7.27574 11.9901 7.5001C11.958 7.66036 11.9901 7.98087 12.0222 8.10908C11.8937 8.01292 11.7008 8.01295 11.4758 8.23731C11.4436 8.10911 11.4436 7.82061 11.4436 7.5642C11.3151 7.62831 11.3472 7.98087 11.3472 8.26933C11.2186 8.20523 10.9936 8.23728 10.865 8.52574C10.7364 8.20523 10.7364 7.82061 10.7364 7.82061C10.5757 7.94882 10.7043 8.39757 10.7364 8.55783C10.5436 8.55783 10.3828 8.68603 10.415 8.87834C10.415 8.97449 10.5114 9.0386 10.5114 9.0386C10.5114 9.0386 10.415 8.78218 10.6079 8.71808C10.8007 8.65398 10.7686 8.8142 11.0257 8.91036C10.8972 8.686 10.8972 8.49369 11.0579 8.42959C11.2186 8.33343 11.3793 8.42962 11.4436 8.55783C11.4758 8.30142 11.7329 8.10911 12.0222 8.23731C11.9901 8.36552 12.1187 8.52574 12.1187 8.52574C12.1187 8.52574 12.1187 8.04497 12.3437 7.98087C12.6973 7.88472 12.7616 8.20523 12.8259 8.686C12.9545 8.52574 13.0509 8.65395 13.1152 8.42959C13.2116 8.23728 13.3723 8.23728 13.3402 8.01292Z" fill="#EAEAEA"/>
<path d="M13.2758 8.1084C13.2758 8.52507 13.5008 8.52506 13.4687 8.84558C13.4365 9.13404 12.8579 9.87122 11.99 9.58276C11.99 9.58276 12.44 9.64686 12.44 9.32635C12.665 9.39045 12.7936 9.23019 12.8258 9.00583C13.1472 8.90968 13.0508 8.49301 13.0508 8.49301C13.0508 8.49301 13.0186 8.33276 13.2758 8.1084Z" fill="#EAEAEA"/>
<path d="M10.7365 9.26271C10.8651 9.39091 10.9615 9.39091 11.1223 9.48706C11.2187 9.48706 11.283 9.42296 11.283 9.42296C11.283 9.42296 11.0901 9.32681 10.9937 9.23065C10.8651 9.1986 10.7365 9.26271 10.7365 9.26271Z" fill="#EAEAEA"/>
<path d="M11.6687 9.48718C11.4758 9.48718 11.2509 9.35897 11.1544 8.91026C11.283 8.78205 11.4115 8.75 11.4115 8.75C11.4115 8.75 11.4758 9.16667 11.8294 9.45513C11.8294 9.42308 11.7651 9.48718 11.6687 9.48718Z" fill="#EAEAEA"/>
<path d="M11.6368 8.74894C11.6368 8.74894 11.6689 8.94125 11.7654 9.16561C11.8618 9.35792 12.0225 9.38997 12.1511 9.35792C12.2475 9.29382 12.2797 9.26176 12.2797 9.26176C12.2797 9.26176 12.0868 9.13356 12.0225 8.8451C11.9904 8.58869 11.7332 8.58869 11.6368 8.74894Z" fill="#EAEAEA"/>
<path d="M12.3116 8.46118C12.2795 8.55734 12.2795 8.8458 12.3437 9.03811C12.408 9.23041 12.6009 9.19836 12.6331 9.03811C12.6652 8.87785 12.6009 8.68554 12.6009 8.49323C12.6009 8.26888 12.3759 8.33298 12.3116 8.46118Z" fill="#EAEAEA"/>
<path d="M21.0549 13.0765L20.7656 13.2048C20.6049 14.1022 20.0584 14.7432 20.0584 15.5124C20.5406 15.256 20.9906 15.224 20.9906 15.224C20.9906 15.224 20.2192 15.4483 20.2192 16.0253C20.2513 16.6022 20.8942 17.3073 21.6657 17.4035C22.405 17.4996 23.4337 16.9868 24.1409 16.506C24.848 16.0253 26.0696 16.2176 26.0696 16.2176C25.6517 15.6407 24.173 15.4483 24.173 15.4483C24.173 15.4483 24.5587 15.2881 25.1052 15.256C24.623 13.7817 23.5944 13.9419 23.0479 12.7881C22.9836 13.1727 22.63 13.1407 22.3086 13.1727C22.3086 13.1727 22.8872 13.4291 23.1765 13.7176C22.63 13.6855 22.4372 13.8137 22.4372 13.8137C22.4372 13.8137 22.5336 13.974 22.4372 14.3586C22.5015 14.3907 21.9871 13.4612 21.0549 13.0765Z" fill="#EAEAEA"/>
<path d="M23.4015 11.9551C23.4015 11.9551 23.7551 11.7307 23.8194 11.6025C23.9158 11.4743 24.0766 11.0576 24.0766 11.0576L23.9801 11.6025C24.5587 12.0192 24.4623 12.2115 24.9766 12.4358C25.4588 12.6922 25.7481 12.9807 25.7803 13.2371C26.6803 13.5256 27.1946 13.9743 27.5482 14.8717C27.9018 15.7692 27.709 16.8589 27.709 16.8589C27.709 16.8589 27.4518 16.7307 26.9696 16.7307C27.1625 18.173 27.5482 18.5576 28.2876 19.0384C28.7376 19.4871 28.8019 20.5768 28.1911 21.282C28.159 20.9294 27.9983 20.7051 27.9983 20.7051C27.5161 20.032 26.7768 19.7115 26.1981 18.4294C25.6517 17.1153 25.716 16.6345 25.716 16.6345C25.716 16.6345 25.9088 16.4102 26.4553 16.314C26.2624 16.0256 25.5552 15.5448 25.2338 14.9038C24.8802 14.2627 24.9766 13.5897 24.9766 13.5897C24.9766 13.5897 25.716 13.7499 26.1981 14.1666C25.8124 13.4294 25.0731 13.173 24.4302 13.141L24.398 12.8204C24.398 12.8204 24.1087 12.8525 23.6908 12.7563L24.2052 12.6602C24.2052 12.6602 23.8194 12.532 23.4015 12.4999C23.4015 12.4999 23.6265 12.2756 23.9158 12.3397C23.9158 12.3397 23.948 12.1794 23.948 12.0192L23.6908 12.0512L23.8194 11.923L23.4015 11.9551Z" fill="#EAEAEA"/>
<path d="M28.1912 16.5381C28.1912 16.5381 29.1233 17.083 29.4448 18.4932C29.7662 19.9035 30.1199 20.1919 30.1199 20.1919C30.1199 20.1919 30.3448 21.3778 29.9912 22.1471C29.9912 22.1471 30.2163 21.9868 30.4091 21.6342C30.4091 21.6342 30.9877 22.756 29.7341 24.5509C29.7341 24.5509 29.0912 24.0701 28.4804 24.3265C28.5769 23.8137 29.059 22.9163 29.059 22.9163L28.3519 23.5894C28.3519 23.5894 28.1268 23.1086 28.2554 22.6278C28.4161 22.115 28.5447 22.115 28.8019 21.0253C29.059 19.9676 28.9305 19.1342 28.5447 18.7496C27.934 18.5894 27.5483 17.8842 27.5483 17.3394L27.934 17.4676C27.934 17.4355 28.1269 17.115 28.1912 16.5381Z" fill="#EAEAEA"/>
<path d="M19.8013 16.8271C19.6084 17.4041 19.8656 17.9169 20.3156 18.2054C20.7657 18.4618 20.8942 18.9746 20.8942 18.9746C20.8942 18.9746 20.412 18.3977 19.8977 18.3336C19.3834 18.3015 19.4798 18.7502 19.4477 19.3271C19.4155 19.9041 20.3477 20.0002 20.3477 20.0002C19.7691 20.1925 19.6084 19.9361 19.512 20.3207C19.4156 20.7374 19.512 21.4746 20.3156 21.9233C21.6657 22.2118 22.18 21.9554 23.1444 22.0515C23.2408 21.6028 23.4658 21.122 23.4658 21.122C23.4658 21.122 22.7908 21.0259 21.955 20.3207C22.6943 20.5771 22.855 20.3207 22.855 20.3207L22.5658 20.0002L23.4337 19.6477L22.5979 19.5515L23.0158 19.263C23.0158 19.263 22.3729 19.1669 21.7943 19.231C22.7908 18.7502 23.6587 19.0387 24.0444 18.6861C24.1087 19.263 24.2373 19.3592 24.2373 19.3592C24.2373 19.3592 24.3338 18.8464 24.4945 18.5259C24.6552 18.2054 24.4944 17.3079 24.1408 17.5323C23.7873 17.7566 23.4658 17.372 23.4658 17.372C23.4658 17.372 22.7265 17.9489 21.955 17.9489C22.0836 18.1733 22.5015 17.981 22.8229 18.2695C21.9228 18.3015 21.5371 18.7182 21.1192 18.2374C20.7014 17.7566 21.0228 17.5964 21.0228 17.5964C21.0228 17.5964 20.3799 16.9554 19.8013 16.8271Z" fill="#EAEAEA"/>
<path d="M20.9907 12.6594L20.8621 10.1273C20.8621 10.1273 21.055 9.55038 21.0872 8.94141C21.1514 9.16577 21.2157 9.13371 21.2157 9.13371L21.0229 10.0953L21.3122 10.9927C21.3122 10.9927 21.0229 12.467 21.2479 12.8517L20.9907 12.6594Z" fill="#EAEAEA"/>
<path d="M25.2018 6.79422C25.2018 6.79422 25.0732 6.18525 24.9125 5.99294L24.8803 6.18525C24.8803 6.18525 24.7196 5.86473 24.4625 5.60832L24.6875 5.70448L24.5267 5.41602L24.8482 5.64037V5.51217C24.8482 5.51217 25.1696 5.83268 25.3304 6.3455L25.2339 6.2814C25.1696 6.31345 25.2339 6.40961 25.2018 6.79422Z" fill="#EAEAEA"/>
<path d="M24.4301 6.02579C24.4301 6.02579 24.3016 5.60912 23.7229 5.38477L23.7872 5.513L23.4979 5.38477L23.5622 5.48092L23.0479 5.44887L23.1443 5.57707C23.1443 5.57707 22.8872 5.64118 22.7265 5.73733C23.2087 5.73733 23.6265 6.02579 23.6265 6.02579C23.6265 6.02579 23.5944 5.83348 23.4336 5.70528C23.7551 5.80143 24.0765 5.99377 24.0765 5.99377L23.9801 5.80143C23.948 5.80143 24.173 5.86553 24.4301 6.02579Z" fill="#EAEAEA"/>
<path d="M22.7908 6.44216L22.405 5.86523L22.4372 6.15373L22.2122 5.99347L22.2443 6.2178L22.0836 6.15373V6.346L22.0193 6.2819V6.44216L21.8907 6.31398V6.60241C21.8907 6.60241 21.73 6.69857 21.6657 6.82677C21.505 7.05113 21.5371 7.43578 21.5371 7.43578C21.5371 7.43578 21.73 7.05113 21.7943 6.98703C21.8907 6.92293 21.9872 6.85882 21.9872 6.85882L22.1157 6.92293L22.0515 6.66652L22.2122 6.76267V6.53831L22.405 6.6345L22.4372 6.37806L22.7908 6.44216Z" fill="#EAEAEA"/>
<path d="M21.5371 7.6924C21.5371 7.6924 21.4406 7.53214 21.3121 7.50009C21.1835 7.46804 20.9906 7.56419 20.8942 7.8206C20.7977 8.10906 20.7656 8.04496 20.7656 8.23727C20.7656 8.42958 20.7978 8.62188 20.9585 8.65394C21.1192 8.68599 21.1835 8.65394 21.0871 8.49368C20.9906 8.33342 20.9263 8.52573 20.8942 8.20522C20.862 7.98086 20.9906 8.01291 21.0228 7.85265C21.087 7.6924 21.1835 7.56419 21.3121 7.66035C21.4406 7.72445 21.4407 7.85265 21.4407 7.85265H21.5693V7.6924H21.5371Z" fill="#EAEAEA"/>
<path d="M21.1835 7.88477C21.087 7.94887 20.9584 8.04502 20.9906 8.17323C20.9906 8.30143 21.1192 8.30143 21.1513 8.39759C21.2156 8.49374 21.2799 8.81425 21.2799 8.81425C21.2799 8.81425 21.3442 8.52579 21.312 8.42964C21.312 8.33348 21.1513 8.30143 21.1513 8.20528C21.1513 8.07707 21.3442 8.07707 21.3442 8.07707L21.1835 7.88477Z" fill="#EAEAEA"/>
<path d="M24.6874 7.56381L25.1374 7.3715L24.816 7.14714C24.816 7.14714 24.6874 6.79458 24.8802 6.73047C24.3016 6.40996 24.1088 6.28176 23.948 6.24971C23.7873 6.21765 23.0158 6.31381 23.0158 6.31381L23.5301 6.44201C23.5301 6.44201 23.4337 6.63432 23.2408 6.76253C23.048 6.89073 22.7908 6.95483 22.5979 7.11509C22.4051 7.27535 22.1801 7.85227 22.1801 7.85227L21.8265 7.91637L21.5372 8.52535C21.4086 8.97406 21.4086 9.67919 21.3443 10.0638C21.3121 10.4164 21.4729 10.7689 21.6657 11.0894C21.8586 11.41 21.955 11.5702 22.2765 11.7305C22.7265 11.7305 22.7587 10.8971 23.0801 10.16C23.3694 10.2561 23.4659 10.3202 23.5944 10.2882C23.723 10.2561 23.723 8.81381 23.9802 8.49329C23.948 8.78176 24.0123 8.78176 24.1409 8.81381C24.2695 8.87791 24.5266 8.90996 24.6874 8.87791C24.7195 8.5574 24.816 8.36509 24.816 8.26894C24.816 8.17278 24.6552 7.85227 24.6552 7.85227L24.6874 7.56381ZM21.955 11.0894C21.7622 10.8971 21.8586 10.3523 21.8908 10.0318C21.9229 9.71124 21.8908 9.35868 21.6014 9.10227C21.9229 9.23047 22.2443 9.45483 22.3086 9.77535C22.2443 10.16 22.0193 10.6407 21.955 11.0894ZM23.6909 8.71765C23.5301 8.7497 23.2087 8.94201 22.9837 9.35868C22.9837 9.35868 22.9837 9.16637 23.048 9.00612C22.7587 8.94201 22.6622 8.78176 22.4694 8.6215C22.4694 8.6215 22.5337 8.49329 22.6944 8.49329C22.5015 8.33304 22.4694 8.30099 22.4694 8.17278C22.7908 8.39714 23.2408 8.5574 23.5944 8.58945C23.723 8.52535 23.8516 8.33304 23.8516 8.33304C23.8516 8.33304 23.8516 8.5574 23.6909 8.71765Z" fill="#EAEAEA"/>
<path d="M27.6768 25.6094C27.6768 25.6094 27.7733 25.2889 27.8697 25.1286C27.934 24.9683 28.1269 24.9043 28.3519 24.5838C29.4127 24.2633 30.0555 25.0004 30.152 25.1607C30.2484 25.3209 30.2163 25.4812 30.2163 25.4812C29.3805 25.1286 28.7697 25.1286 28.4483 25.2248L28.159 25.1927L27.6768 25.6094Z" fill="#EAEAEA"/>
<path d="M27.6768 25.8649C27.6768 25.8649 27.9661 25.5444 28.7697 25.5124C29.6055 25.4803 30.602 25.929 30.8913 26.2495C31.1807 26.5701 31.5985 26.7944 31.7271 27.3072C31.8557 27.8201 31.6628 28.6534 31.6628 28.6534C31.5985 28.429 31.2128 28.4931 31.2128 28.4931C31.2128 28.1726 30.7949 28.0124 30.3448 28.0444C30.3127 27.6278 29.6055 27.4675 29.1876 27.6278C29.2198 27.2111 28.7697 27.0188 28.0625 27.2431C28.0304 26.8906 28.4162 26.2175 27.6768 25.8649Z" fill="#EAEAEA"/>
<path d="M27.9661 27.5C27.9661 27.5 28.3519 27.2436 28.7055 27.3718C29.0591 27.5 29.0591 27.7885 29.0591 27.7885C29.0591 27.7885 29.2519 27.7244 29.6377 27.7885C30.0234 27.8526 30.152 28.0449 30.152 28.2693C30.5378 28.2372 31.0842 28.3654 31.1164 28.6859C31.3414 28.6218 31.5664 28.75 31.5664 28.9423L31.47 29.0706C31.4378 28.9103 31.2449 28.7821 30.9878 28.9423C30.9878 28.6859 30.9235 28.5257 30.0234 28.5577C30.0234 28.2693 29.7984 28.077 28.9948 28.109C28.9948 27.8847 28.9626 27.5321 28.0626 27.7564L27.9661 27.5Z" fill="#EAEAEA"/>
<path d="M28.995 28.8461C28.9307 29.4871 28.8342 29.7435 28.7699 30.1281C28.7056 30.5128 28.9306 30.7051 29.2199 30.5769C29.1557 30.4487 28.9306 30.5448 28.9628 30.2563C28.9949 29.9999 29.1878 29.9679 29.2842 29.7756L29.2199 29.7115L29.3485 29.6795L29.2842 29.5833L29.445 29.5512L29.3485 29.391H29.5414C29.5414 29.391 29.6057 29.1987 29.6379 28.9102C29.445 28.782 28.995 28.8461 28.995 28.8461Z" fill="#EAEAEA"/>
<path d="M30.0236 29.2627C30.0236 29.2627 30.2165 29.1024 30.4093 29.1665C30.6344 29.2306 30.6022 29.2947 30.6022 29.2947C30.6022 29.2947 30.6022 29.5511 30.5379 29.7755C30.4736 29.9998 30.4736 30.4165 30.4736 30.4165C30.3129 30.2562 30.0879 30.3524 30.0879 30.3524C30.1522 30.3845 30.4093 30.3845 30.4093 30.5127C30.4093 30.6409 30.1843 30.6729 30.0557 30.5768C29.9272 30.4806 29.8629 30.2562 29.9272 29.9357C30.0236 29.6473 30.0236 29.2627 30.0236 29.2627Z" fill="#EAEAEA"/>
<path d="M29.2842 30.5134C29.2199 30.3852 29.0592 30.3852 29.0592 30.2891C29.0592 30.1929 29.1556 30.0327 29.252 30.0647C29.3485 30.0968 29.4128 30.1929 29.2842 30.5134Z" fill="#EAEAEA"/>
<path d="M28.1269 28.2693C28.0947 28.5578 28.0626 28.5578 28.0304 29.0065C27.9983 29.4231 27.9019 29.6155 28.1269 29.7437C28.3519 29.8719 28.5126 29.7116 28.5769 29.3911C28.6412 29.0706 28.7698 28.686 28.8341 28.4296C28.5448 28.2052 28.2876 28.2052 28.1269 28.2693ZM28.4805 29.3911C28.4483 29.1988 28.2233 29.2629 28.159 29.327C28.1912 29.1988 28.2876 29.1347 28.4162 29.1347C28.5126 29.1667 28.5126 29.2629 28.4805 29.3911Z" fill="#EAEAEA"/>
<path d="M30.8916 30.1601C30.8916 29.9998 30.9559 29.9357 31.0845 29.9037C31.0845 29.8075 31.1166 29.7114 31.1166 29.6152C30.8595 29.6793 30.6666 29.8396 30.6666 29.8396C30.6666 29.9998 30.6023 30.1281 30.6666 30.2563C30.7309 30.4165 30.9559 30.4165 31.0202 30.2883C31.0523 30.2242 31.0523 30.1281 31.0523 29.9678C31.0202 29.9998 30.9238 30.0319 30.8916 30.1601Z" fill="#EAEAEA"/>
<path d="M27.5483 26.1855C27.1304 26.4099 27.2268 26.9547 26.8732 27.2112C26.5196 27.4676 27.0339 27.4996 27.4518 27.3714C27.5804 26.9227 27.9983 26.474 27.5483 26.1855Z" fill="#EAEAEA"/>
<path d="M26.9699 26.41C26.4877 26.8587 26.552 27.2754 26.2306 27.66L26.4235 27.7882C26.4235 27.7882 26.3913 28.2049 25.5234 28.5895C25.9091 29.1023 26.1984 29.2626 26.1984 29.2626L25.9734 29.7113C25.9734 29.7113 26.2306 29.9357 26.7449 29.5511C27.2592 29.1664 27.1949 28.91 27.6771 28.878C27.6128 29.3267 27.6771 29.6472 27.6771 29.6472L27.42 29.8075C27.42 29.8075 27.1306 30.6087 27.7414 30.6728C27.1949 31.0575 26.3913 30.9613 25.4591 30.6728C24.5269 30.3844 24.4626 29.9036 23.6268 29.8075C22.7911 29.7113 22.2446 30.1921 21.3124 30.16C20.348 30.128 19.5444 29.4549 19.5444 29.4549C19.5444 29.4549 19.448 29.8716 20.0266 30.3203C19.6409 30.7049 19.4801 31.7305 19.4801 31.7305C19.4801 31.7305 18.4836 31.8267 17.7443 32.8203C17.3264 32.7883 17.0371 32.2113 17.0371 32.2113C17.0371 32.2113 17.0693 32.7883 17.4228 33.2049L17.23 33.5575C17.23 33.5575 16.9085 33.3972 16.6835 33.0126C16.9407 33.8139 16.9728 34.1024 16.2656 34.6472C15.8156 34.1344 15.912 33.6857 15.7513 33.2049C16.2656 32.2113 16.3299 31.1216 17.0693 30.4805C17.8086 29.8075 17.9372 29.0703 18.5479 28.5895C19.1587 28.1087 19.3194 27.3075 20.0909 26.8587C20.8624 26.378 21.8589 25.2562 22.8554 24.7434C23.884 24.2305 24.8805 24.1664 25.3948 24.3267C25.9091 24.487 26.7128 25.3203 27.0342 25.3844C27.1949 25.8972 26.9699 26.41 26.9699 26.41Z" fill="#EAEAEA"/>
<path d="M33.2701 24.5185C33.2701 24.5185 34.0737 24.198 34.3952 24.5506C34.6523 24.6467 34.588 25.2237 34.588 25.2237C34.588 25.2237 35.0702 24.8711 35.3917 25.2237C35.3917 24.7429 35.6167 24.5506 35.6167 24.5506C35.6167 24.5506 35.8417 24.7429 35.8738 24.9352L36.1953 24.7108C35.8096 24.4544 35.9381 24.1019 35.0702 23.9416C34.0094 23.7493 33.3665 24.2621 33.2701 24.5185Z" fill="#EAEAEA"/>
<path d="M34.4274 25.8649C34.4274 25.8649 34.7167 25.4803 34.9417 25.4482C35.1667 25.4162 35.4239 25.6726 35.4882 25.8649C35.5846 25.7367 35.5846 25.6726 35.456 25.5123C35.3275 25.3841 35.1667 25.1918 34.8774 25.2559C34.5881 25.32 34.2988 25.7046 34.4274 25.8649Z" fill="#EAEAEA"/>
<path d="M32.563 25.3209C32.4344 25.8978 32.8201 26.1222 33.1737 26.1863C33.1737 26.026 33.3345 25.8978 33.3345 25.8978V26.1222C33.3345 26.1222 33.7523 25.8978 33.7202 26.2824C33.8488 26.4427 33.9452 26.1222 34.3309 26.4427C34.3309 26.0581 34.1059 25.9619 33.7845 25.8017C33.463 25.6414 33.238 25.0645 33.238 25.0645C33.238 25.0645 32.6916 24.9042 32.563 25.3209Z" fill="#EAEAEA"/>
<path d="M34.2988 26.6022C34.2988 26.6022 34.0738 26.4099 33.8488 26.474C33.6238 26.5381 33.6881 26.6663 33.7845 26.7304C33.9131 26.7945 33.9774 26.8907 33.9774 26.8907C33.9774 26.8907 34.2667 26.7625 34.2988 26.6022Z" fill="#EAEAEA"/>
<path d="M18.9977 20.3839C18.9977 20.3198 18.9977 20.2557 18.9977 20.1916C18.9656 19.9672 18.8691 19.8711 18.7727 19.839C18.9656 19.7429 18.9977 19.3903 19.0942 18.8455C19.1906 18.3006 18.7084 18.4288 18.387 18.7172C18.612 18.1403 19.062 18.0762 19.1906 17.5634C19.287 17.2429 19.4477 16.8903 19.5763 16.1211C19.2227 17.2108 18.1298 17.1147 17.6798 17.948C17.5833 18.589 17.519 18.3647 17.3905 19.0698C17.2619 19.7749 17.6476 20.8006 17.4869 21.8583C18.0977 21.9545 18.4191 21.666 19.3835 21.7942C19.1906 21.3134 19.0942 20.8647 19.062 20.4801C18.9977 20.4801 18.9977 20.448 18.9977 20.3839Z" fill="#EAEAEA"/>
<path d="M10.3827 31.3788C9.54696 32.4044 8.96834 33.6865 8.77547 34.1031L9.12907 34.4878C9.28979 34.3275 9.5791 34.1352 9.86841 34.007C9.73983 34.2313 9.61125 34.5519 9.51481 34.8724L11.1221 36.539C12.0221 35.8339 12.4079 34.4878 12.1507 33.6224C12.8257 34.007 13.5972 33.4942 13.9508 32.5006C13.7258 31.9237 11.6042 31.2826 10.3827 31.3788Z" fill="#EAEAEA"/>
<path d="M27.6125 21.8907C27.4839 21.7625 27.3875 21.5703 27.3553 21.378C27.3553 21.2818 27.3232 21.2177 27.2911 21.2177C27.1625 21.0574 27.0017 20.8972 26.841 20.7369C26.5839 20.4805 26.2624 20.1921 25.9731 19.7754C25.5874 20.8651 25.1695 21.1856 24.9766 21.6664C24.7838 22.1151 24.7516 22.8523 24.6552 23.3972C24.6873 23.3972 24.7516 23.3972 24.7837 23.3972C25.1052 23.3972 25.3945 23.4292 25.6517 23.5254C26.0695 23.6536 26.4553 23.942 26.841 24.2305C26.9696 24.3266 27.1625 24.4869 27.2589 24.551C27.2589 24.551 27.2589 24.551 27.2911 24.551C27.3232 24.4869 27.3875 24.4549 27.4196 24.4228C27.4839 24.3587 27.5482 24.3266 27.5804 24.2305C27.5804 24.1984 27.6125 24.1664 27.6446 24.1664C27.6125 24.1343 27.5804 24.0702 27.5482 24.0382C27.5161 23.9741 27.1625 23.2369 27.4196 22.4356C27.4839 22.1472 27.5482 21.9869 27.6125 21.8907Z" fill="#EAEAEA"/>
<path d="M33.8488 7.62854L33.431 9.84011L32.4666 6.28242L26.0697 0.0644531H11.508L0.289391 10.9619V25.4811L1.47876 26.699L2.70027 26.1863L2.63598 26.9875L4.24323 26.5388L3.02172 28.3016L8.06849 33.4619C8.32565 32.917 8.80782 31.9875 9.41858 31.1542H8.87211C8.87211 31.1542 9.70788 30.4811 10.3508 29.4875C10.6079 29.0709 10.9615 28.5901 11.5402 28.3337C11.6044 28.3016 11.6687 28.2696 11.7652 28.2696C11.7973 28.1093 11.9259 27.8849 12.1188 27.6926C12.2473 27.5644 12.3759 27.4683 12.5366 27.3401C12.6974 27.2119 13.276 26.9234 13.3724 26.4427C13.2117 25.5132 13.726 24.6157 14.4332 24.0709C14.4332 24.0068 14.4653 23.9427 14.4653 23.8786C14.4975 23.6542 14.5618 23.3657 14.7547 23.0773C15.1725 22.4363 15.8154 22.3081 16.4583 22.276C16.5869 21.635 16.5548 20.8657 16.4905 20.385C16.4262 19.9042 16.4262 19.167 16.4905 18.7183C16.6512 17.6606 17.0048 17.276 17.0048 17.276C16.9405 17.2119 16.9084 17.1798 16.8762 17.1157C16.4262 16.4106 16.3619 15.4811 16.6512 14.1029C16.6512 14.0388 16.6834 13.9747 16.6834 13.8785C15.3654 13.6542 14.9475 12.8529 13.5653 12.3722C11.9902 11.7952 12.3116 10.6734 11.4116 10.0004C11.0258 10.0324 10.2865 9.84011 9.99719 9.5196C9.61145 9.16703 9.45072 8.59011 9.54716 7.91703C9.61145 7.2119 9.70788 6.66703 10.6401 6.31447C11.6366 5.92985 12.8581 5.92985 13.1795 6.44267C13.501 6.95549 13.7582 6.79521 13.9189 7.50033C14.0153 7.8529 13.951 8.14136 13.951 8.14136C14.8189 8.59008 15.044 8.87857 15.7833 9.29524C16.5226 9.7119 16.7155 9.48755 17.4227 10.0004C18.1942 9.67985 19.4157 9.87216 19.8979 10.0965C20.155 9.48755 20.2515 8.84652 20.2515 8.84652C19.8336 8.62216 20.1229 8.17341 20.155 7.62854C20.1872 7.08367 20.5086 6.85931 20.8301 6.98751C20.8301 6.98751 21.0229 6.05803 21.4408 5.54521C22.2444 4.61572 24.0124 4.51956 24.9125 5.09649C25.9733 5.76956 25.9411 6.76319 25.6518 7.37216C25.7161 8.04524 25.4911 8.59008 25.4268 8.94264C25.3304 9.48751 25.0411 9.26319 25.0411 9.67985C25.0411 10.1286 24.7839 10.5132 24.4946 10.9939L24.8803 11.3144C24.9768 11.4106 25.0411 11.4747 25.1054 11.5388C25.2018 11.667 25.2339 11.667 25.3304 11.7311C25.8125 11.9875 26.1661 12.276 26.3912 12.6285C27.3234 13.0132 27.902 13.6222 28.3199 14.6157C28.4806 15.0324 28.577 15.4811 28.577 15.8658C28.7377 15.9619 29.8307 16.667 30.2164 18.3337C30.4414 19.2311 30.6343 19.5516 30.6664 19.6157C30.795 19.744 30.8593 19.9042 30.8915 20.0645C30.8915 20.1286 30.9879 20.5452 30.9557 21.0901C31.02 21.1542 31.0522 21.2183 31.0843 21.2824C31.1486 21.4426 31.7915 22.7247 30.6343 24.6157C30.6986 24.6798 30.7307 24.744 30.7629 24.808C30.8593 25.0003 30.9236 25.1606 30.9557 25.3209C31.1486 25.4491 31.3415 25.5773 31.4379 25.7375C31.4701 25.7696 31.5344 25.8337 31.5986 25.8978C31.5665 25.7055 31.5665 25.4811 31.6308 25.1927C31.6308 25.1606 31.6308 25.1285 31.6629 25.1285C31.7915 24.776 32.0487 24.4875 32.3702 24.3593V24.3273C32.563 23.7183 33.3667 23.1414 34.5239 23.1414C34.7168 23.1414 34.9418 23.1734 35.1346 23.2055C35.9383 23.3337 36.2597 23.6542 36.4847 23.9747V24.8722C36.4526 24.8722 36.3883 24.9042 36.3561 24.9042C35.9383 25.0645 35.7132 25.2567 35.874 25.417C35.9704 25.5132 36.1633 25.4811 36.3883 25.385L35.2311 26.5388C35.2311 26.5067 35.2311 26.5068 35.2632 26.4747C35.3275 26.1863 35.1989 25.9298 35.1989 25.9298C35.1989 25.9298 34.6525 25.6414 34.4917 26.058C34.4917 26.058 34.5239 26.2183 34.4274 26.4427C34.331 26.635 34.4917 26.667 34.331 27.1478C34.3632 27.2119 34.4274 27.244 34.4917 27.276L33.5274 28.2375C33.3024 27.885 33.2059 27.4683 33.2059 27.4683L33.2381 27.9811L32.7238 27.6606L33.0774 28.1093L32.1773 28.2375L32.8523 28.3337L31.9522 28.6221L32.8202 28.6863L32.0165 28.8786L32.6273 28.9426C32.4987 29.0708 31.7272 29.3593 31.7272 29.3593C31.7272 29.3593 32.1773 29.3273 32.4987 29.2311L32.2416 29.4875C32.0487 29.5837 31.888 29.6157 31.888 29.6157C31.888 29.6157 31.9522 29.6478 32.0487 29.6799L25.7161 36.0581L15.8476 36.9555H26.1019L33.431 29.4555L37.3205 25.4811V23.8144V10.9939L33.8488 7.62854Z" fill="#EAEAEA"/>
<path d="M62.0722 1.73047H47.6712V26.2818C47.6712 31.2818 51.7215 35.3202 56.7361 35.3202H66.9582L69.0477 27.4356H61.6543L60.2721 29.0382L60.6578 27.4356H55.5789V9.61508H63.2616V15.6087L69.4334 13.942L70.0442 12.7241L70.3335 13.6856L71.1692 13.4612V10.7689C71.1371 5.76893 67.0868 1.73047 62.0722 1.73047Z" fill="#EAEAEA"/>
<path d="M96.4031 2.4997L98.139 2.21124V1.73047H73.5802V9.58303L81.9057 9.61508V33.4933L83.6416 33.7177L81.9057 34.3587V35.2882H89.7813L89.8134 9.61508H98.139V3.30098L96.4031 2.4997Z" fill="#EAEAEA"/>
<path d="M121.991 35.3202C121.798 34.4869 121.605 33.6215 121.573 33.5574C121.541 33.4933 122.441 34.4869 123.212 35.3202H124.048V1.73047H109.647C104.632 1.73047 100.582 5.76893 100.582 10.7689V25.3202L102.222 26.6984L100.582 26.2818V35.2882H108.49V29.4228L116.172 27.4035V35.2882L121.991 35.3202ZM108.458 21.3138V9.61508H116.14V15.192L117.523 16.41L116.14 16.3459V19.2946L108.458 21.3138Z" fill="#EAEAEA"/>
<path d="M148.446 1.7627L148.189 5.44859L147.514 1.7627H135.523C130.509 1.7627 126.459 5.80116 126.459 10.8012V35.3524H131.055L130.862 33.3973L132.02 35.3524H134.366V9.64731H142.049V35.3524H149.957V1.7627H148.446Z" fill="#EAEAEA"/>
<path d="M174.355 31.1537L175.833 31.4101V20.9935C175.833 15.9935 171.783 11.955 166.769 11.955H164.454L162.783 18.2371L164.197 18.173L162.525 19.1665L162.365 19.8076H167.958V27.4678H160.275V1.7627H156.804L154.811 3.01269L155.454 1.7627H152.368V35.3524H175.833V33.4614L174.355 31.1537Z" fill="#EAEAEA"/>
<path d="M48.4427 44.3591V45.4168H48.9249C49.2785 45.4168 49.6321 45.4488 49.8892 45.5129C50.1785 45.577 50.4357 45.6732 50.6286 45.8014C50.8214 45.9296 50.9822 46.0898 51.0786 46.3142C51.175 46.5065 51.2393 46.7629 51.2393 47.0834C51.2393 47.6283 51.0465 48.045 50.6286 48.3014C50.2428 48.5578 49.6642 48.718 48.9249 48.718C48.732 48.718 48.4749 48.718 48.2177 48.686C47.9605 48.6539 47.7034 48.6219 47.4784 48.5578V43.5898H50.7893V44.3591H48.4427ZM48.7642 47.8847C48.8284 47.8847 48.8927 47.8847 48.957 47.8847C49.0213 47.8847 49.0856 47.8847 49.182 47.8847C49.3428 47.8847 49.4713 47.8527 49.6321 47.8206C49.7607 47.7886 49.8892 47.7565 49.9857 47.6924C50.0821 47.6283 50.1785 47.5322 50.2428 47.436C50.3071 47.3398 50.3393 47.2116 50.3393 47.0514C50.3393 46.8911 50.3071 46.7309 50.2428 46.6347C50.1785 46.5386 50.0821 46.4424 49.9535 46.3783C49.8249 46.3142 49.6964 46.2822 49.5035 46.2501C49.3428 46.2181 49.1499 46.218 48.9249 46.218H48.4427V47.9168C48.4749 47.9168 48.5391 47.9168 48.5713 47.9168C48.6356 47.8847 48.6999 47.8847 48.7642 47.8847Z" fill="#EAEAEA"/>
<path d="M60.8828 46.1222C60.8828 46.5388 60.8185 46.9235 60.6899 47.276C60.5613 47.5965 60.4006 47.885 60.1756 48.1094C59.9506 48.3337 59.6934 48.494 59.4041 48.6222C59.1148 48.7183 58.7934 48.7824 58.4398 48.7824C58.1183 48.7824 57.7969 48.7183 57.4754 48.6222C57.1861 48.526 56.929 48.3337 56.7039 48.1094C56.4789 47.885 56.3182 47.6286 56.1896 47.276C56.061 46.9555 55.9967 46.5709 55.9967 46.1222C55.9967 45.7055 56.061 45.3209 56.1896 44.9683C56.3182 44.6478 56.5111 44.3593 56.7361 44.135C56.9611 43.9106 57.2183 43.7504 57.5076 43.6222C57.7969 43.526 58.1183 43.4619 58.4398 43.4619C58.7612 43.4619 59.0827 43.526 59.372 43.6222C59.6613 43.7183 59.9184 43.9106 60.1435 44.135C60.3685 44.3593 60.5292 44.6478 60.6578 44.9683C60.8185 45.2888 60.8828 45.6734 60.8828 46.1222ZM56.929 46.1222C56.929 46.4106 56.9611 46.635 57.0254 46.8914C57.0897 47.1158 57.1861 47.3081 57.3147 47.4683C57.4433 47.6286 57.604 47.7568 57.7969 47.8209C57.9897 47.917 58.1826 47.9491 58.4398 47.9491C58.6648 47.9491 58.8898 47.917 59.0505 47.8209C59.2434 47.7247 59.4041 47.5965 59.5327 47.4683C59.6613 47.3081 59.7577 47.1158 59.822 46.8914C59.8863 46.667 59.9184 46.4106 59.9184 46.1222C59.9184 45.8337 59.8863 45.6093 59.822 45.3529C59.7577 45.1286 59.6613 44.9363 59.5327 44.776C59.4041 44.6158 59.2434 44.4876 59.0505 44.4235C58.8577 44.3273 58.6648 44.2952 58.4398 44.2952C58.2148 44.2952 57.9897 44.3273 57.7969 44.4235C57.604 44.5196 57.4433 44.6478 57.3147 44.8081C57.1861 44.9683 57.0897 45.1606 57.0254 45.385C56.9611 45.5773 56.929 45.8337 56.929 46.1222Z" fill="#EAEAEA"/>
<path d="M65.833 48.654V43.5899H66.733V46.9553C66.8938 46.6988 67.0866 46.4104 67.3116 46.1219C67.5367 45.8335 67.7295 45.5129 67.9545 45.2245C68.1796 44.936 68.4046 44.6476 68.6296 44.3591C68.8546 44.0706 69.0475 43.8463 69.2725 43.6219H70.0118V48.686H69.1118V45.0642C68.9189 45.3206 68.6939 45.577 68.4689 45.8976C68.2438 46.186 68.0188 46.5065 67.7938 46.827C67.5688 47.1476 67.3759 47.4681 67.1509 47.7886C66.958 48.1091 66.7652 48.3976 66.6044 48.686H65.833V48.654ZM67.9545 43.1091C67.7938 43.1091 67.6652 43.077 67.5045 43.045C67.3759 43.0129 67.2473 42.9488 67.1509 42.8527C67.0545 42.7565 66.958 42.6604 66.8938 42.5642C66.8295 42.436 66.7973 42.3078 66.7652 42.1476L67.4081 41.9873C67.5045 42.3399 67.6652 42.5001 67.9545 42.5001C68.2438 42.5001 68.4367 42.3399 68.501 41.9873L69.1439 42.1476C69.1118 42.3078 69.0796 42.436 69.0153 42.5642C68.951 42.6924 68.8546 42.7886 68.7582 42.8527C68.6617 42.9168 68.5332 42.9809 68.4046 43.045C68.2438 43.1091 68.1153 43.1091 67.9545 43.1091Z" fill="#EAEAEA"/>
<path d="M79.9448 47.8527V49.968H79.0769V48.6219H75.1873V43.5898H76.1195V47.8527H78.2733V43.5898H79.2055V47.8527H79.9448Z" fill="#EAEAEA"/>
<path d="M89.2989 46.1222C89.2989 46.5388 89.2346 46.9235 89.1061 47.276C88.9775 47.5965 88.8167 47.885 88.5917 48.1094C88.3667 48.3337 88.1096 48.494 87.8203 48.6222C87.531 48.7183 87.2095 48.7824 86.8559 48.7824C86.5345 48.7824 86.213 48.7183 85.8916 48.6222C85.6022 48.526 85.3451 48.3337 85.1201 48.1094C84.895 47.885 84.7343 47.6286 84.6058 47.276C84.4772 46.9555 84.4129 46.5709 84.4129 46.1222C84.4129 45.7055 84.4772 45.3209 84.6058 44.9683C84.7343 44.6478 84.9272 44.3593 85.1522 44.135C85.3772 43.9106 85.6344 43.7504 85.9237 43.6222C86.213 43.526 86.5345 43.4619 86.8559 43.4619C87.1774 43.4619 87.4988 43.526 87.7881 43.6222C88.0774 43.7183 88.3346 43.9106 88.5596 44.135C88.7846 44.3593 88.9453 44.6478 89.0739 44.9683C89.2346 45.2888 89.2989 45.6734 89.2989 46.1222ZM85.3451 46.1222C85.3451 46.4106 85.3772 46.635 85.4415 46.8914C85.5058 47.1158 85.6022 47.3081 85.7308 47.4683C85.8594 47.6286 86.0201 47.7568 86.213 47.8209C86.4059 47.917 86.5987 47.9491 86.8559 47.9491C87.0809 47.9491 87.3059 47.917 87.4667 47.8209C87.6595 47.7247 87.8203 47.5965 87.9488 47.4683C88.0774 47.3081 88.1738 47.1158 88.2381 46.8914C88.3024 46.667 88.3346 46.4106 88.3346 46.1222C88.3346 45.8337 88.3024 45.6093 88.2381 45.3529C88.1738 45.1286 88.0774 44.9363 87.9488 44.776C87.8203 44.6158 87.6595 44.4876 87.4667 44.4235C87.2738 44.3273 87.0809 44.2952 86.8559 44.2952C86.6309 44.2952 86.4059 44.3273 86.213 44.4235C86.0201 44.5196 85.8594 44.6478 85.7308 44.8081C85.6022 44.9683 85.5058 45.1606 85.4415 45.385C85.3772 45.5773 85.3451 45.8337 85.3451 46.1222Z" fill="#EAEAEA"/>
<path d="M95.7601 48.6856C95.503 48.6856 95.2137 48.6856 94.9565 48.6536C94.6993 48.6215 94.4422 48.5895 94.2493 48.5574V43.6536C94.3457 43.6215 94.4743 43.6215 94.6029 43.5895C94.7315 43.5574 94.8601 43.5574 94.9886 43.5574C95.1172 43.5574 95.2458 43.5254 95.3744 43.5254C95.503 43.5254 95.6315 43.5254 95.728 43.5254C96.0494 43.5254 96.3066 43.5574 96.5959 43.5895C96.853 43.6215 97.0781 43.7177 97.2709 43.8139C97.4638 43.91 97.6245 44.0703 97.721 44.2305C97.8174 44.3908 97.8817 44.6151 97.8817 44.8715C97.8817 45.0959 97.8174 45.3203 97.721 45.4805C97.5924 45.6408 97.4317 45.801 97.2388 45.8972C97.5602 45.9933 97.7853 46.1536 97.9138 46.3459C98.0746 46.5382 98.1388 46.7946 98.1388 47.1151C98.1388 47.628 97.946 48.0126 97.5602 48.269C97.1424 48.5574 96.5637 48.6856 95.7601 48.6856ZM95.1494 45.6408H95.7923C96.1459 45.6408 96.403 45.5767 96.628 45.4805C96.8209 45.3844 96.9173 45.1921 96.9173 44.9356C96.9173 44.6792 96.8209 44.519 96.5959 44.4228C96.403 44.3267 96.1137 44.2626 95.7923 44.2626C95.6637 44.2626 95.5351 44.2626 95.4065 44.2626C95.3101 44.2626 95.2137 44.2626 95.1172 44.2946V45.6408H95.1494ZM95.1494 46.378V47.9164C95.2458 47.9164 95.3744 47.9485 95.4708 47.9485C95.5994 47.9485 95.6958 47.9485 95.7923 47.9485C95.9851 47.9485 96.1459 47.9485 96.3066 47.9164C96.4673 47.8844 96.5959 47.8523 96.7245 47.7882C96.853 47.7241 96.9495 47.66 97.0138 47.5318C97.0781 47.4356 97.1102 47.3074 97.1102 47.1472C97.1102 46.8587 97.0138 46.6664 96.7888 46.5382C96.5637 46.4421 96.2744 46.378 95.9208 46.378H95.1494Z" fill="#EAEAEA"/>
<path d="M105.275 48.7496C104.889 48.7496 104.568 48.6855 104.246 48.5893C103.957 48.4611 103.7 48.3009 103.475 48.0765C103.25 47.8521 103.089 47.5637 102.993 47.2432C102.896 46.9227 102.832 46.538 102.832 46.1214C102.832 45.7047 102.896 45.3201 103.025 44.9996C103.154 44.6791 103.346 44.3906 103.539 44.1662C103.764 43.9419 104.021 43.7816 104.343 43.6534C104.632 43.5252 104.954 43.4932 105.307 43.4932C105.532 43.4932 105.693 43.4932 105.886 43.5252C106.047 43.5573 106.207 43.5893 106.336 43.6214C106.465 43.6534 106.561 43.7175 106.657 43.7496C106.754 43.7816 106.786 43.8137 106.818 43.8457L106.561 44.5829C106.432 44.5188 106.272 44.4547 106.047 44.3906C105.822 44.3265 105.597 44.2944 105.339 44.2944C105.114 44.2944 104.922 44.3265 104.729 44.4227C104.536 44.4868 104.375 44.615 104.246 44.7752C104.118 44.9355 103.989 45.1278 103.925 45.3521C103.861 45.5765 103.796 45.8329 103.796 46.1534C103.796 46.4098 103.829 46.6662 103.893 46.8906C103.957 47.115 104.054 47.3073 104.182 47.4675C104.311 47.6278 104.472 47.756 104.664 47.8521C104.857 47.9483 105.082 47.9803 105.372 47.9803C105.693 47.9803 105.95 47.9483 106.175 47.8842C106.368 47.8201 106.529 47.756 106.657 47.6919L106.915 48.4291C106.85 48.4611 106.786 48.4932 106.69 48.5573C106.593 48.5893 106.465 48.6214 106.336 48.6855C106.207 48.7175 106.047 48.7496 105.886 48.7816C105.661 48.7496 105.468 48.7496 105.275 48.7496Z" fill="#EAEAEA"/>
<path d="M114.694 48.6539C114.565 48.4616 114.436 48.2693 114.243 48.045C114.083 47.8206 113.89 47.6283 113.729 47.436C113.536 47.2437 113.343 47.0514 113.151 46.8591C112.958 46.6668 112.765 46.5386 112.572 46.3783V48.6539H111.64V43.5898H112.572V45.6732C112.733 45.5129 112.893 45.3527 113.086 45.1604C113.247 44.968 113.44 44.8078 113.601 44.6155C113.761 44.4232 113.954 44.2629 114.083 44.0706C114.243 43.9104 114.372 43.7501 114.501 43.5898H115.594C115.433 43.7822 115.272 43.9745 115.079 44.1668C114.886 44.3591 114.726 44.5514 114.533 44.7757C114.34 44.968 114.147 45.1924 113.954 45.3847C113.761 45.577 113.568 45.7693 113.376 45.9616C113.568 46.1219 113.793 46.3142 113.986 46.5065C114.211 46.6988 114.404 46.9232 114.597 47.1796C114.79 47.4039 114.983 47.6604 115.176 47.9168C115.369 48.1732 115.529 48.4296 115.69 48.686H114.694V48.6539Z" fill="#EAEAEA"/>
<path d="M120.512 48.6539V43.5898H121.412V46.9552C121.573 46.6988 121.765 46.4104 121.99 46.1219C122.215 45.8334 122.408 45.5129 122.633 45.2245C122.858 44.936 123.083 44.6475 123.308 44.3591C123.533 44.0706 123.726 43.8463 123.951 43.6219H124.691V48.686H123.791V45.0642C123.598 45.3206 123.373 45.577 123.148 45.8975C122.923 46.186 122.698 46.5065 122.473 46.827C122.248 47.1475 122.055 47.4681 121.83 47.7886C121.637 48.1091 121.444 48.3975 121.283 48.686H120.512V48.6539Z" fill="#EAEAEA"/>
<path d="M129.866 48.654V43.5899H130.766V46.9553C130.927 46.6988 131.12 46.4104 131.345 46.1219C131.57 45.8335 131.763 45.5129 131.988 45.2245C132.213 44.936 132.438 44.6476 132.663 44.3591C132.888 44.0706 133.08 43.8463 133.305 43.6219H134.045V48.686H133.145V45.0642C132.952 45.3206 132.727 45.577 132.502 45.8976C132.277 46.186 132.052 46.5065 131.827 46.827C131.602 47.1476 131.409 47.4681 131.184 47.7886C130.991 48.1091 130.798 48.3976 130.637 48.686H129.866V48.654ZM132.02 43.1091C131.859 43.1091 131.73 43.077 131.57 43.045C131.441 43.0129 131.312 42.9488 131.216 42.8527C131.12 42.7565 131.023 42.6604 130.959 42.5642C130.895 42.436 130.862 42.3078 130.83 42.1476L131.473 41.9873C131.57 42.3399 131.73 42.5001 132.02 42.5001C132.309 42.5001 132.502 42.3399 132.566 41.9873L133.209 42.1476C133.177 42.3078 133.145 42.436 133.08 42.5642C133.016 42.6924 132.92 42.7886 132.823 42.8527C132.727 42.9168 132.598 42.9809 132.47 43.045C132.309 43.1091 132.148 43.1091 132.02 43.1091Z" fill="#EAEAEA"/>
<path d="M148.06 48.6539C147.932 48.4616 147.803 48.2693 147.61 48.045C147.449 47.8206 147.257 47.6283 147.096 47.436C146.903 47.2437 146.71 47.0514 146.517 46.8591C146.324 46.6668 146.132 46.5386 145.939 46.3783V48.6539H145.006V43.5898H145.939V45.6732C146.099 45.5129 146.26 45.3527 146.453 45.1604C146.614 44.968 146.807 44.8078 146.967 44.6155C147.128 44.4232 147.321 44.2629 147.449 44.0706C147.61 43.9104 147.739 43.7501 147.867 43.5898H148.96C148.8 43.7822 148.639 43.9745 148.446 44.1668C148.253 44.3591 148.092 44.5514 147.899 44.7757C147.707 44.968 147.514 45.1924 147.321 45.3847C147.128 45.577 146.935 45.7693 146.742 45.9616C146.935 46.1219 147.16 46.3142 147.353 46.5065C147.578 46.6988 147.771 46.9232 147.964 47.1796C148.157 47.4039 148.35 47.6604 148.542 47.9168C148.735 48.1732 148.896 48.4296 149.057 48.686H148.06V48.6539Z" fill="#EAEAEA"/>
<path d="M156.032 44.3903C156.032 44.7108 156 45.0634 155.968 45.3839C155.935 45.7365 155.903 46.057 155.871 46.3775C155.807 46.698 155.743 46.9865 155.646 47.2749C155.55 47.5634 155.421 47.7878 155.228 48.0121C155.068 48.2365 154.843 48.3967 154.585 48.5249C154.328 48.6531 154.007 48.7172 153.653 48.7172L153.557 47.916C153.717 47.8839 153.878 47.8519 154.007 47.8198C154.135 47.7557 154.264 47.6916 154.36 47.6275C154.457 47.5314 154.553 47.4352 154.618 47.339C154.682 47.2108 154.746 47.0826 154.81 46.9224C154.939 46.5378 155.035 46.057 155.068 45.5121C155.1 44.9352 155.132 44.2942 155.132 43.6211H158.282V48.6852H157.35V44.4224H156.032V44.3903Z" fill="#EAEAEA"/>
<path d="M165.997 47.1153C165.868 47.3717 165.74 47.6281 165.611 47.8204C165.483 48.0127 165.354 48.173 165.193 48.3333C165.033 48.4615 164.872 48.5576 164.679 48.6217C164.486 48.6858 164.293 48.7179 164.036 48.7179C163.908 48.7179 163.747 48.7179 163.586 48.6858C163.425 48.6538 163.297 48.6217 163.2 48.5897L163.361 47.8204C163.457 47.8525 163.554 47.8845 163.65 47.9166C163.747 47.9486 163.843 47.9486 163.972 47.9486C164.197 47.9486 164.39 47.8845 164.518 47.7884C164.679 47.6922 164.808 47.532 164.936 47.2756C164.743 46.9551 164.518 46.6025 164.358 46.282C164.165 45.9615 164.004 45.6089 163.843 45.2884C163.682 44.9679 163.522 44.6794 163.393 44.3589C163.265 44.0704 163.136 43.814 163.04 43.5576H164.068C164.133 43.7499 164.229 43.9743 164.325 44.1986C164.422 44.423 164.518 44.6474 164.647 44.9038C164.775 45.1602 164.872 45.3845 165 45.641C165.129 45.8974 165.258 46.1538 165.386 46.4102C165.547 45.9935 165.74 45.5127 165.9 45.032C166.061 44.5512 166.222 44.0384 166.351 43.5576H167.347C167.218 43.9102 167.122 44.2627 166.993 44.5833C166.865 44.9038 166.768 45.1922 166.64 45.4807C166.511 45.7692 166.415 46.0576 166.286 46.314C166.222 46.6025 166.126 46.8589 165.997 47.1153Z" fill="#EAEAEA"/>
<path d="M173.005 44.3591V45.4168H173.487C173.84 45.4168 174.194 45.4488 174.451 45.5129C174.741 45.577 174.998 45.6732 175.191 45.8014C175.383 45.9296 175.544 46.0898 175.641 46.3142C175.737 46.5065 175.801 46.7629 175.801 47.0834C175.801 47.6283 175.608 48.045 175.191 48.3014C174.805 48.5578 174.226 48.718 173.487 48.718C173.294 48.718 173.037 48.718 172.78 48.686C172.523 48.6539 172.265 48.6219 172.04 48.5578V43.5898H175.287V44.3591H173.005ZM173.326 47.8847C173.39 47.8847 173.455 47.8847 173.519 47.8847C173.583 47.8847 173.648 47.8847 173.744 47.8847C173.905 47.8847 174.033 47.8527 174.194 47.8206C174.323 47.7886 174.451 47.7565 174.548 47.6924C174.644 47.6283 174.741 47.5322 174.805 47.436C174.869 47.3398 174.901 47.2116 174.901 47.0514C174.901 46.8911 174.869 46.7309 174.805 46.6347C174.741 46.5386 174.644 46.4424 174.516 46.3783C174.387 46.3142 174.258 46.2822 174.066 46.2501C173.905 46.2181 173.712 46.218 173.487 46.218H173.005V47.9168C173.037 47.9168 173.101 47.9168 173.133 47.9168C173.198 47.8847 173.262 47.8847 173.326 47.8847Z" fill="#EAEAEA"/>
</g>
<defs>
<clipPath id="clip0_50_765">
<rect width="175.833" height="50" fill="white"/>
</clipPath>
</defs>
</svg>
