<svg width="211" height="60" viewBox="0 0 211 60" fill="none" xmlns="http://www.w3.org/2000/svg">
<g clip-path="url(#clip0_7_132)">
<path d="M15.391 37.5384C15.391 37.5384 14.0409 36.923 12.3437 37.0384C13.2309 36.4999 13.5009 35.3076 14.311 34.9615C15.121 34.6153 16.0082 35.3461 17.6669 35.3461C16.2397 34.8461 15.9311 34.1153 15.9311 34.1153C15.9311 34.1153 15.2367 34.4615 15.1596 34.2307C15.0439 33.9999 16.664 33.1153 16.8183 32.4615C17.3583 32.8846 17.1269 33.6922 17.9369 33.9999C17.2812 33.2307 17.7441 32.923 17.2426 31.9999C16.7411 31.0769 17.3583 30.1538 18.0141 29.6922C18.6698 29.1922 18.0912 28.0384 19.1713 27.9999C19.9813 27.9999 20.0199 27.6538 20.0199 27.6538C20.9457 27.6153 20.7914 28.6153 22.643 29.3461C21.3314 29.5769 20.2514 28.5384 20.2514 28.5384C20.2514 28.5384 19.8271 29.7307 20.4828 30.6153C19.6342 29.9615 19.9042 30.2692 18.6313 29.8461C17.7441 30.3461 18.2841 31.0384 18.2841 31.0384C18.0141 31.2692 18.5155 31.5384 18.1684 31.8076C17.8212 32.0384 17.6669 32.8076 20.4442 33.2692C19.4413 33.5384 19.4027 33.923 19.4027 33.923C18.7856 32.8076 18.1298 33.6922 18.3612 34.2692C18.5927 34.8461 19.017 35.2692 19.8271 35.4615C18.747 36.0384 17.8984 35.6922 16.7797 36.0384C16.9726 36.3076 16.6254 36.3846 16.1239 36.4615C15.5453 36.6153 14.8896 36.9999 15.391 37.5384Z" fill="#101010"/>
<path d="M22.2572 26.8846V27.5769C22.2572 27.5769 23.8388 27.423 25.9217 27.7307C25.8832 27.423 26.076 27.1538 25.9217 27.0769C25.7675 26.9999 24.533 26.7307 23.8773 26.7307C23.8773 26.7307 24.263 27.423 22.6815 27.3461C22.0257 27.2692 22.4501 27.0769 22.2572 26.8846Z" fill="#101010"/>
<path d="M23.1444 17.5769L23.4144 18.4999L22.8744 18.0769C22.8744 18.0769 23.2601 18.923 23.1444 19.0769C23.0287 19.2307 21.5243 20.5384 21.1386 19.9999C20.7914 19.4615 20.7143 18.6153 21.0229 17.1923C21.3314 15.7692 21.1771 14.6153 20.83 14.2307C20.9071 15.1153 20.56 15.7307 20.56 15.7307C18.3998 15.3846 18.5155 14.4999 17.0497 14.0769C15.6225 13.6538 15.5839 13.3461 15.3139 12.6923C15.0439 12.0384 14.6581 11.8076 14.6581 11.8076C14.6581 11.8076 15.121 12.0769 15.7768 11.8076C16.2011 12.5384 16.8183 12.4999 16.8183 12.4999L17.2426 13.3076C17.2426 13.3076 16.8954 13.3461 16.1625 13.3076C17.0883 13.6538 17.5898 13.7307 18.1298 13.6923C18.0527 14.1923 18.3998 14.3076 18.9013 14.2692C19.8271 14.4999 20.3285 14.6538 20.6757 13.7307C21.7172 13.4615 22.4501 13.7307 22.7973 14.1538C23.1444 14.5769 23.8002 14.6538 24.3788 14.3846C23.183 13.3461 22.2572 13.1923 20.4828 13.4615C19.9814 13.6153 19.017 13.6538 18.4384 13.1153C17.8598 12.5769 17.3969 10.923 16.0082 11.3846C16.3554 11.0769 16.2397 10.7307 16.2397 10.7307C17.474 11.1923 18.0526 12.2307 18.9399 12.423C19.8271 12.6153 20.4828 13.1923 20.4828 13.1923C22.3344 12.4999 23.5302 12.9999 24.5331 14.0769H24.726C24.726 14.0769 24.5331 15.0384 24.2631 15.2692H24.6102C24.6102 15.2692 24.7645 15.923 23.8002 17.6538C23.6459 18.0384 23.1444 17.5769 23.1444 17.5769Z" fill="#101010"/>
<path d="M16.0082 9.61536C15.9696 9.34613 15.7767 9.03848 15.5453 8.92309C15.3524 8.65386 15.4296 8.50001 15.1596 8.34617C14.8895 8.19232 14.3109 8.11536 13.7709 8.30767C13.2309 8.49997 12.3051 8.73078 12.3822 9.30771C12.3822 9.30771 12.6522 8.84617 12.9994 8.92309C13.3852 8.6154 14.0023 8.42305 14.1952 8.65382C14.3109 8.46151 14.6195 8.46151 14.6195 8.46151L15.2367 8.80767C15.2367 8.80767 15.4296 8.99998 15.391 9.38459C15.4681 9.30767 15.7767 9.65382 15.4296 9.99998C15.2753 9.49998 15.0438 9.42305 14.8124 9.42305C14.6967 9.42305 14.5809 9.49998 14.5424 9.5769C14.5038 9.53844 14.5038 9.46151 14.4652 9.34613C14.3881 9.0769 14.4652 8.73074 14.3881 8.99998C14.3495 9.19228 14.3881 9.5769 14.4267 9.73074C14.2724 9.61536 14.0409 9.6154 13.7709 9.88463C13.7323 9.73078 13.7323 9.38459 13.7323 9.0769C13.578 9.15382 13.6166 9.5769 13.6166 9.92305C13.4623 9.84613 13.1923 9.88459 13.038 10.2307C12.8837 9.84613 12.8837 9.38459 12.8837 9.38459C12.6908 9.53844 12.8451 10.0769 12.8837 10.2692C12.6522 10.2692 12.4594 10.4231 12.4979 10.6539C12.4979 10.7692 12.6137 10.8462 12.6137 10.8462C12.6137 10.8462 12.4979 10.5385 12.7294 10.4616C12.9608 10.3846 12.9223 10.5769 13.2309 10.6923C13.0766 10.4231 13.0766 10.1923 13.2694 10.1154C13.4623 9.99998 13.6552 10.1154 13.7323 10.2692C13.7709 9.96155 14.0795 9.73078 14.4267 9.88463C14.3881 10.0385 14.5424 10.2307 14.5424 10.2307C14.5424 10.2307 14.5424 9.65382 14.8124 9.5769C15.2367 9.46151 15.3139 9.84613 15.391 10.4231C15.5453 10.2307 15.661 10.3846 15.7382 10.1154C15.8539 9.88459 16.0468 9.88459 16.0082 9.61536Z" fill="#101010"/>
<path d="M15.931 9.73071C15.931 10.2307 16.201 10.2307 16.1624 10.6153C16.1239 10.9615 15.4295 11.8461 14.388 11.4999C14.388 11.4999 14.9281 11.5769 14.9281 11.1923C15.1981 11.2692 15.3524 11.0769 15.391 10.8076C15.7767 10.6923 15.661 10.1923 15.661 10.1923C15.661 10.1923 15.6224 9.99994 15.931 9.73071Z" fill="#101010"/>
<path d="M12.8837 11.1154C13.038 11.2692 13.1537 11.2692 13.3466 11.3846C13.4623 11.3846 13.5394 11.3077 13.5394 11.3077C13.5394 11.3077 13.308 11.1923 13.1923 11.0769C13.038 11.0385 12.8837 11.1154 12.8837 11.1154Z" fill="#101010"/>
<path d="M14.0023 11.3846C13.7709 11.3846 13.5009 11.2308 13.3852 10.6923C13.5395 10.5385 13.6937 10.5 13.6937 10.5C13.6937 10.5 13.7709 11 14.1952 11.3462C14.1952 11.3077 14.1181 11.3846 14.0023 11.3846Z" fill="#101010"/>
<path d="M13.9638 10.5C13.9638 10.5 14.0023 10.7308 14.1181 11C14.2338 11.2308 14.4267 11.2692 14.581 11.2308C14.6967 11.1538 14.7353 11.1154 14.7353 11.1154C14.7353 11.1154 14.5038 10.9615 14.4267 10.6154C14.3881 10.3077 14.0795 10.3077 13.9638 10.5Z" fill="#101010"/>
<path d="M14.7738 10.1538C14.7352 10.2692 14.7352 10.6153 14.8124 10.8461C14.8895 11.0769 15.1209 11.0384 15.1595 10.8461C15.1981 10.6538 15.1209 10.423 15.1209 10.1922C15.1209 9.92302 14.8509 9.99994 14.7738 10.1538Z" fill="#101010"/>
<path d="M25.266 15.6922L24.9188 15.8461C24.7259 16.923 24.0702 17.6922 24.0702 18.6153C24.6488 18.3076 25.1888 18.2691 25.1888 18.2691C25.1888 18.2691 24.263 18.5384 24.263 19.2307C24.3016 19.923 25.0731 20.7691 25.9989 20.8845C26.8861 20.9999 28.1204 20.3845 28.9691 19.8076C29.8177 19.2307 31.2835 19.4615 31.2835 19.4615C30.782 18.7691 29.0076 18.5384 29.0076 18.5384C29.0076 18.5384 29.4705 18.3461 30.1263 18.3076C29.5477 16.5384 28.3133 16.7307 27.6575 15.3461C27.5804 15.8076 27.1561 15.7691 26.7703 15.8076C26.7703 15.8076 27.4647 16.1153 27.8118 16.4615C27.1561 16.423 26.9246 16.5768 26.9246 16.5768C26.9246 16.5768 27.0404 16.7691 26.9246 17.2307C27.0018 17.2691 26.3846 16.1538 25.266 15.6922Z" fill="#101010"/>
<path d="M28.0818 14.3462C28.0818 14.3462 28.5061 14.077 28.5833 13.9231C28.699 13.7693 28.8919 13.2693 28.8919 13.2693L28.7762 13.9231C29.4705 14.4231 29.3548 14.6539 29.972 14.9231C30.5506 15.2308 30.8977 15.577 30.9363 15.8847C32.0164 16.2308 32.6336 16.7693 33.0579 17.8462C33.4822 18.9231 33.2507 20.2308 33.2507 20.2308C33.2507 20.2308 32.9422 20.077 32.3635 20.077C32.595 21.8077 33.0579 22.2693 33.9451 22.8462C34.4851 23.3847 34.5623 24.6924 33.8294 25.5385C33.7908 25.1154 33.5979 24.8462 33.5979 24.8462C33.0193 24.0385 32.1321 23.6539 31.4378 22.1154C30.782 20.5385 30.8592 19.9616 30.8592 19.9616C30.8592 19.9616 31.0906 19.6924 31.7464 19.577C31.5149 19.2308 30.6663 18.6539 30.2805 17.8847C29.8562 17.1154 29.972 16.3077 29.972 16.3077C29.972 16.3077 30.8592 16.5001 31.4378 17.0001C30.9749 16.1154 30.0877 15.8077 29.3162 15.7693L29.2776 15.3847C29.2776 15.3847 28.9305 15.4231 28.429 15.3077L29.0462 15.1924C29.0462 15.1924 28.5833 15.0385 28.0818 15.0001C28.0818 15.0001 28.3518 14.7308 28.699 14.8077C28.699 14.8077 28.7376 14.6154 28.7376 14.4231L28.429 14.4616L28.5833 14.3077L28.0818 14.3462Z" fill="#101010"/>
<path d="M33.8294 19.8462C33.8294 19.8462 34.948 20.5 35.3338 22.1923C35.7195 23.8847 36.1439 24.2308 36.1439 24.2308C36.1439 24.2308 36.4139 25.6539 35.9895 26.577C35.9895 26.577 36.2596 26.3847 36.491 25.9616C36.491 25.9616 37.1853 27.3077 35.681 29.4616C35.681 29.4616 34.9095 28.8847 34.1766 29.1923C34.2923 28.577 34.8709 27.5 34.8709 27.5L34.0223 28.3077C34.0223 28.3077 33.7522 27.7308 33.9065 27.1539C34.0994 26.5385 34.2537 26.5385 34.5623 25.2308C34.8709 23.9616 34.7166 22.9616 34.2537 22.5C33.5208 22.3077 33.058 21.4616 33.058 20.8077L33.5208 20.9616C33.5208 20.9231 33.7523 20.5385 33.8294 19.8462Z" fill="#101010"/>
<path d="M23.7615 20.1923C23.5301 20.8846 23.8387 21.5 24.3788 21.8461C24.9188 22.1538 25.073 22.7692 25.073 22.7692C25.073 22.7692 24.4944 22.0769 23.8773 22C23.2601 21.9615 23.3758 22.5 23.3372 23.1923C23.2986 23.8846 24.4173 24 24.4173 24C23.723 24.2307 23.5301 23.923 23.4144 24.3846C23.2987 24.8846 23.4144 25.7692 24.3788 26.3076C25.9989 26.6538 26.616 26.3461 27.7732 26.4615C27.889 25.923 28.159 25.3461 28.159 25.3461C28.159 25.3461 27.3489 25.2307 26.346 24.3846C27.2332 24.6923 27.4261 24.3846 27.4261 24.3846L27.0789 24L28.1204 23.5769L27.1175 23.4615L27.6189 23.1153C27.6189 23.1153 26.8475 23 26.1531 23.0769C27.3489 22.5 28.3904 22.8461 28.8533 22.423C28.9305 23.1153 29.0848 23.2307 29.0848 23.2307C29.0848 23.2307 29.2005 22.6153 29.3934 22.2307C29.5862 21.8461 29.3933 20.7692 28.969 21.0384C28.5447 21.3076 28.159 20.8461 28.159 20.8461C28.159 20.8461 27.2718 21.5384 26.346 21.5384C26.5003 21.8076 27.0018 21.5769 27.3875 21.923C26.3074 21.9615 25.8446 22.4615 25.3431 21.8846C24.8416 21.3076 25.2273 21.1153 25.2273 21.1153C25.2273 21.1153 24.4559 20.3461 23.7615 20.1923Z" fill="#101010"/>
<path d="M25.1888 15.1923L25.0345 12.1538C25.0345 12.1538 25.266 11.4615 25.3045 10.7307C25.3817 10.9999 25.4588 10.9615 25.4588 10.9615L25.2274 12.1153L25.5745 13.1923C25.5745 13.1923 25.2274 14.9615 25.4974 15.423L25.1888 15.1923Z" fill="#101010"/>
<path d="M30.242 8.15385C30.242 8.15385 30.0877 7.42308 29.8948 7.19231L29.8562 7.42308C29.8562 7.42308 29.6634 7.03846 29.3548 6.73077L29.6248 6.84615L29.4319 6.5L29.8177 6.76923V6.61538C29.8177 6.61538 30.2034 7 30.3963 7.61538L30.2805 7.53846C30.2034 7.57692 30.2805 7.69231 30.242 8.15385Z" fill="#101010"/>
<path d="M29.3162 7.23078C29.3162 7.23078 29.1619 6.73078 28.4676 6.46155L28.5447 6.61543L28.1976 6.46155L28.2747 6.57693L27.6576 6.53847L27.7733 6.69232C27.7733 6.69232 27.4647 6.76924 27.2718 6.88462C27.8505 6.88462 28.3519 7.23078 28.3519 7.23078C28.3519 7.23078 28.3133 7.00001 28.1204 6.84616C28.5062 6.96155 28.8919 7.19236 28.8919 7.19236L28.7762 6.96155C28.7376 6.96155 29.0076 7.03847 29.3162 7.23078Z" fill="#101010"/>
<path d="M27.349 7.73076L26.8861 7.03845L26.9246 7.38464L26.6546 7.19234L26.6932 7.46153L26.5003 7.38464V7.61538L26.4232 7.53845V7.73076L26.2689 7.57695V7.92307C26.2689 7.92307 26.076 8.03845 25.9989 8.1923C25.806 8.46153 25.8446 8.92311 25.8446 8.92311C25.8446 8.92311 26.076 8.46153 26.1532 8.38461C26.2689 8.30768 26.3846 8.23076 26.3846 8.23076L26.5389 8.30768L26.4617 7.99999L26.6546 8.11537V7.84614L26.8861 7.96157L26.9246 7.65384L27.349 7.73076Z" fill="#101010"/>
<path d="M25.8445 9.23071C25.8445 9.23071 25.7288 9.0384 25.5745 8.99994C25.4202 8.96147 25.1888 9.07686 25.0731 9.38455C24.9573 9.73071 24.9188 9.65378 24.9188 9.88455C24.9188 10.1153 24.9574 10.3461 25.1502 10.3846C25.3431 10.423 25.4203 10.3846 25.3045 10.1922C25.1888 9.99994 25.1116 10.2307 25.0731 9.84609C25.0345 9.57686 25.1888 9.61532 25.2273 9.42301C25.3045 9.23071 25.4202 9.07686 25.5745 9.19224C25.7288 9.26917 25.7288 9.42301 25.7288 9.42301H25.8831V9.23071H25.8445Z" fill="#101010"/>
<path d="M25.4202 9.46155C25.3045 9.53847 25.1502 9.65386 25.1888 9.8077C25.1888 9.96155 25.3431 9.96155 25.3816 10.0769C25.4588 10.1923 25.536 10.5769 25.536 10.5769C25.536 10.5769 25.6131 10.2308 25.5745 10.1154C25.5745 10 25.3816 9.96155 25.3816 9.84616C25.3816 9.69232 25.6131 9.69232 25.6131 9.69232L25.4202 9.46155Z" fill="#101010"/>
<path d="M29.6249 9.07684L30.1649 8.84607L29.7792 8.57684C29.7792 8.57684 29.6249 8.15376 29.8563 8.07684C29.162 7.69222 28.9305 7.53838 28.7377 7.49991C28.5448 7.46145 27.619 7.57684 27.619 7.57684L28.2362 7.73068C28.2362 7.73068 28.1205 7.96145 27.889 8.1153C27.6576 8.26914 27.349 8.34607 27.1176 8.53838C26.8861 8.73068 26.6161 9.42299 26.6161 9.42299L26.1918 9.49991L25.8446 10.2307C25.6903 10.7691 25.6903 11.6153 25.6132 12.0768C25.5746 12.4999 25.7675 12.923 25.9989 13.3076C26.2303 13.6922 26.3461 13.8845 26.7318 14.0768C27.2718 14.0768 27.3104 13.0768 27.6962 12.1922C28.0433 12.3076 28.159 12.3845 28.3133 12.3461C28.4676 12.3076 28.4676 10.5768 28.7762 10.1922C28.7377 10.5384 28.8148 10.5384 28.9691 10.5768C29.1234 10.6538 29.432 10.6922 29.6249 10.6538C29.6634 10.2691 29.7792 10.0384 29.7792 9.92299C29.7792 9.80761 29.5863 9.42299 29.5863 9.42299L29.6249 9.07684ZM26.3461 13.3076C26.1146 13.0768 26.2303 12.423 26.2689 12.0384C26.3075 11.6538 26.2689 11.2307 25.9218 10.923C26.3075 11.0768 26.6932 11.3461 26.7704 11.7307C26.6932 12.1922 26.4232 12.7691 26.3461 13.3076ZM28.4291 10.4615C28.2362 10.4999 27.8505 10.7307 27.5804 11.2307C27.5804 11.2307 27.5804 10.9999 27.6576 10.8076C27.3104 10.7307 27.1947 10.5384 26.9633 10.3461C26.9633 10.3461 27.0404 10.1922 27.2333 10.1922C27.0018 9.99991 26.9633 9.96145 26.9633 9.80761C27.349 10.0768 27.889 10.2691 28.3133 10.3076C28.4676 10.2307 28.6219 9.99991 28.6219 9.99991C28.6219 9.99991 28.6219 10.2691 28.4291 10.4615Z" fill="#101010"/>
<path d="M33.2122 30.7307C33.2122 30.7307 33.3279 30.3461 33.4437 30.1538C33.5208 29.9615 33.7522 29.8846 34.0223 29.5C35.2952 29.1154 36.0667 30 36.1824 30.1923C36.2981 30.3846 36.2595 30.5769 36.2595 30.5769C35.2566 30.1538 34.5237 30.1538 34.138 30.2692L33.7908 30.2307L33.2122 30.7307Z" fill="#101010"/>
<path d="M33.2122 31.0384C33.2122 31.0384 33.5593 30.6538 34.5237 30.6154C35.5266 30.5769 36.7224 31.1154 37.0696 31.5C37.4168 31.8846 37.9182 32.1538 38.0725 32.7692C38.2268 33.3846 37.9954 34.3846 37.9954 34.3846C37.9182 34.1154 37.4554 34.1923 37.4554 34.1923C37.4554 33.8077 36.9539 33.6154 36.4138 33.6538C36.3752 33.1538 35.5266 32.9615 35.0252 33.1538C35.0637 32.6538 34.5237 32.423 33.6751 32.6923C33.6365 32.2692 34.0994 31.4615 33.2122 31.0384Z" fill="#101010"/>
<path d="M33.5594 33C33.5594 33 34.0223 32.6923 34.4466 32.8462C34.8709 33 34.8709 33.3462 34.8709 33.3462C34.8709 33.3462 35.1024 33.2693 35.5653 33.3462C36.0282 33.4231 36.1825 33.6539 36.1825 33.9231C36.6453 33.8846 37.3011 34.0385 37.3397 34.4231C37.6097 34.3462 37.8797 34.5 37.8797 34.7308L37.764 34.8846C37.7254 34.6923 37.494 34.5385 37.1854 34.7308C37.1854 34.4231 37.1082 34.2308 36.0282 34.2693C36.0282 33.9231 35.7581 33.6923 34.7938 33.7308C34.7938 33.4616 34.7552 33.0385 33.6751 33.3077L33.5594 33Z" fill="#101010"/>
<path d="M34.7938 34.6154C34.7166 35.3846 34.6009 35.6923 34.5237 36.1539C34.4466 36.6154 34.7166 36.8462 35.0638 36.6923C34.9866 36.5385 34.7166 36.6539 34.7552 36.3077C34.7937 36 35.0252 35.9616 35.1409 35.7308L35.0638 35.6539L35.2181 35.6154L35.1409 35.5L35.3338 35.4616L35.2181 35.2693H35.4495C35.4495 35.2693 35.5267 35.0385 35.5653 34.6924C35.3338 34.5385 34.7938 34.6154 34.7938 34.6154Z" fill="#101010"/>
<path d="M36.0281 35.1154C36.0281 35.1154 36.2596 34.9231 36.491 35C36.761 35.0769 36.7225 35.1538 36.7225 35.1538C36.7225 35.1538 36.7224 35.4615 36.6453 35.7307C36.5682 36 36.5681 36.5 36.5681 36.5C36.3753 36.3077 36.1053 36.423 36.1053 36.423C36.1824 36.4615 36.491 36.4615 36.491 36.6154C36.491 36.7692 36.221 36.8077 36.0667 36.6923C35.9124 36.5769 35.8352 36.3077 35.9124 35.9231C36.0281 35.5769 36.0281 35.1154 36.0281 35.1154Z" fill="#101010"/>
<path d="M35.1409 36.6154C35.0638 36.4615 34.8709 36.4615 34.8709 36.3461C34.8709 36.2307 34.9866 36.0384 35.1023 36.0769C35.2181 36.1154 35.2952 36.2307 35.1409 36.6154Z" fill="#101010"/>
<path d="M33.7522 33.923C33.7136 34.2692 33.6751 34.2692 33.6365 34.8077C33.5979 35.3077 33.4822 35.5384 33.7522 35.6923C34.0222 35.8461 34.2151 35.6538 34.2922 35.2692C34.3694 34.8846 34.5237 34.423 34.6008 34.1153C34.2537 33.8461 33.9451 33.8461 33.7522 33.923ZM34.1765 35.2692C34.138 35.0384 33.8679 35.1153 33.7908 35.1923C33.8294 35.0384 33.9451 34.9615 34.0994 34.9615C34.2151 35 34.2151 35.1153 34.1765 35.2692Z" fill="#101010"/>
<path d="M37.0696 36.1923C37.0696 36 37.1468 35.9231 37.3011 35.8846C37.3011 35.7692 37.3396 35.6538 37.3396 35.5385C37.031 35.6154 36.7996 35.8077 36.7996 35.8077C36.7996 36 36.7224 36.1538 36.7996 36.3077C36.8767 36.5 37.1468 36.5 37.2239 36.3461C37.2625 36.2692 37.2625 36.1538 37.2625 35.9615C37.2239 36 37.1082 36.0385 37.0696 36.1923Z" fill="#101010"/>
<path d="M33.058 31.4231C32.5565 31.6923 32.6722 32.3461 32.2479 32.6538C31.8236 32.9615 32.4408 33 32.9422 32.8461C33.0965 32.3077 33.598 31.7692 33.058 31.4231Z" fill="#101010"/>
<path d="M32.3636 31.6923C31.785 32.2308 31.8622 32.7308 31.4764 33.1923L31.7079 33.3462C31.7079 33.3462 31.6693 33.8462 30.6278 34.3077C31.0907 34.9231 31.4378 35.1154 31.4378 35.1154L31.1678 35.6539C31.1678 35.6539 31.4764 35.9231 32.0936 35.4616C32.7108 35 32.6336 34.6923 33.2122 34.6539C33.1351 35.1923 33.2122 35.5769 33.2122 35.5769L32.9037 35.7693C32.9037 35.7693 32.5565 36.7308 33.2894 36.8077C32.6336 37.2692 31.6693 37.1539 30.5506 36.8077C29.432 36.4616 29.3548 35.8846 28.3519 35.7693C27.349 35.6539 26.6932 36.2308 25.5746 36.1923C24.4174 36.1539 23.453 35.3462 23.453 35.3462C23.453 35.3462 23.3373 35.8462 24.0316 36.3846C23.5687 36.8462 23.3759 38.0769 23.3759 38.0769C23.3759 38.0769 22.1801 38.1923 21.2929 39.3847C20.7914 39.3462 20.4442 38.6539 20.4442 38.6539C20.4442 38.6539 20.4828 39.3462 20.9071 39.8462L20.6757 40.2693C20.6757 40.2693 20.2899 40.077 20.0199 39.6154C20.3285 40.577 20.3671 40.9231 19.5185 41.577C18.9784 40.9616 19.0941 40.4231 18.9013 39.8462C19.5185 38.6539 19.5956 37.3462 20.4828 36.5769C21.37 35.7692 21.5243 34.8846 22.2572 34.3077C22.9901 33.7308 23.183 32.7692 24.1088 32.2308C25.0345 31.6539 26.2303 30.3077 27.4261 29.6923C28.6605 29.0769 29.8563 29 30.4735 29.1923C31.0907 29.3846 32.055 30.3846 32.4408 30.4616C32.6336 31.0769 32.3636 31.6923 32.3636 31.6923Z" fill="#101010"/>
<path d="M39.9241 29.4231C39.9241 29.4231 40.8885 29.0385 41.2742 29.4616C41.5828 29.577 41.5057 30.2693 41.5057 30.2693C41.5057 30.2693 42.0843 29.8462 42.47 30.2693C42.47 29.6923 42.74 29.4616 42.74 29.4616C42.74 29.4616 43.0101 29.6924 43.0486 29.9231L43.4344 29.6539C42.9715 29.3462 43.1258 28.9231 42.0843 28.7308C40.8113 28.5 40.0399 29.1154 39.9241 29.4231Z" fill="#101010"/>
<path d="M41.3128 31.0384C41.3128 31.0384 41.66 30.5769 41.93 30.5384C42.2 30.4999 42.5086 30.8076 42.5857 31.0384C42.7015 30.8846 42.7015 30.8076 42.5472 30.6153C42.3929 30.4615 42.2 30.2307 41.8528 30.3076C41.5057 30.3846 41.1585 30.8461 41.3128 31.0384Z" fill="#101010"/>
<path d="M39.0755 30.3846C38.9212 31.0769 39.3841 31.3461 39.8084 31.423C39.8084 31.2307 40.0013 31.0769 40.0013 31.0769V31.3461C40.0013 31.3461 40.5027 31.0769 40.4642 31.5384C40.6185 31.7307 40.7342 31.3461 41.1971 31.7307C41.1971 31.2692 40.9271 31.1538 40.5413 30.9615C40.1556 30.7692 39.8856 30.0769 39.8856 30.0769C39.8856 30.0769 39.2298 29.8846 39.0755 30.3846Z" fill="#101010"/>
<path d="M41.1585 31.9231C41.1585 31.9231 40.8885 31.6923 40.6185 31.7692C40.3485 31.8462 40.4256 32 40.5413 32.0769C40.6956 32.1539 40.7728 32.2692 40.7728 32.2692C40.7728 32.2692 41.1199 32.1154 41.1585 31.9231Z" fill="#101010"/>
<path d="M22.7973 24.4615C22.7973 24.3845 22.7973 24.3076 22.7973 24.2307C22.7587 23.9615 22.643 23.8461 22.5272 23.8076C22.7587 23.6922 22.7973 23.2691 22.913 22.6153C23.0287 21.9615 22.4501 22.1153 22.0644 22.4615C22.3344 21.7691 22.8744 21.6922 23.0287 21.0768C23.1444 20.6922 23.3373 20.2691 23.4916 19.3461C23.0673 20.6538 21.7558 20.5384 21.2157 21.5384C21.1 22.3076 21.0229 22.0384 20.8686 22.8845C20.7143 23.7307 21.1772 24.9615 20.9843 26.2307C21.7172 26.3461 22.1029 25.9999 23.2601 26.1538C23.0287 25.5768 22.913 25.0384 22.8744 24.5768C22.7973 24.5768 22.7973 24.5384 22.7973 24.4615Z" fill="#101010"/>
<path d="M12.4593 37.6539C11.4564 38.8847 10.7621 40.4231 10.5306 40.9231L10.955 41.3847C11.1478 41.1924 11.495 40.9616 11.8422 40.8077C11.6879 41.077 11.5336 41.4616 11.4178 41.8462L13.3465 43.8462C14.4266 43.0001 14.8895 41.3847 14.5809 40.3462C15.391 40.8077 16.3167 40.1924 16.7411 39.0001C16.471 38.3077 13.9252 37.5385 12.4593 37.6539Z" fill="#101010"/>
<path d="M33.1351 26.2691C32.9808 26.1153 32.865 25.8846 32.8265 25.6538C32.8265 25.5384 32.7879 25.4615 32.7493 25.4615C32.595 25.2692 32.4022 25.0769 32.2093 24.8846C31.9007 24.5769 31.515 24.2307 31.1678 23.7307C30.7049 25.0384 30.2035 25.423 29.972 25.9999C29.7406 26.5384 29.702 27.423 29.5863 28.0768C29.6249 28.0768 29.702 28.0768 29.7405 28.0768C30.1263 28.0768 30.4735 28.1153 30.782 28.2307C31.2835 28.3845 31.7464 28.7307 32.2093 29.0768C32.3636 29.1922 32.595 29.3845 32.7107 29.4614C32.7107 29.4614 32.7107 29.4614 32.7493 29.4614C32.7879 29.3845 32.865 29.3461 32.9036 29.3076C32.9808 29.2307 33.0579 29.1922 33.0965 29.0768C33.0965 29.0384 33.1351 28.9999 33.1736 28.9999C33.1351 28.9614 33.0965 28.8845 33.058 28.8461C33.0194 28.7691 32.595 27.8845 32.9036 26.923C32.9808 26.5768 33.0579 26.3845 33.1351 26.2691Z" fill="#101010"/>
<path d="M40.6185 9.15381L40.117 11.8077L38.9598 7.53846L31.2835 0.0769043H13.8095L0.34713 13.1538V30.5769L1.77437 32.0384L3.24018 31.4231L3.16304 32.3846L5.09174 31.8461L3.62592 33.9615L9.68205 40.1538C9.99064 39.5 10.5692 38.3846 11.3022 37.3846H10.6464C10.6464 37.3846 11.6493 36.5769 12.4208 35.3846C12.7294 34.8846 13.1537 34.3077 13.848 34C13.9252 33.9615 14.0023 33.9231 14.1181 33.9231C14.1566 33.7308 14.3109 33.4615 14.5424 33.2307C14.6967 33.0769 14.851 32.9615 15.0438 32.8077C15.2367 32.6538 15.931 32.3077 16.0468 31.7308C15.8539 30.6154 16.4711 29.5385 17.3197 28.8846C17.3197 28.8077 17.3583 28.7308 17.3583 28.6538C17.3969 28.3846 17.474 28.0385 17.7054 27.6923C18.2069 26.9231 18.9784 26.7692 19.7499 26.7308C19.9042 25.9615 19.8656 25.0385 19.7884 24.4615C19.7113 23.8846 19.7113 23 19.7884 22.4615C19.9813 21.1923 20.4056 20.7307 20.4056 20.7307C20.3285 20.6538 20.2899 20.6153 20.2513 20.5384C19.7113 19.6923 19.6341 18.5769 19.9813 16.9231C19.9813 16.8462 20.0199 16.7692 20.0199 16.6538C18.4384 16.3846 17.9369 15.4231 16.2782 14.8462C14.3881 14.1538 14.7738 12.8077 13.6937 12C13.2309 12.0385 12.3437 11.8077 11.9965 11.4231C11.5336 11 11.3407 10.3077 11.4565 9.5C11.5336 8.65385 11.6493 8 12.768 7.57692C13.9638 7.11538 15.4296 7.11538 15.8153 7.73077C16.2011 8.34615 16.5097 8.15381 16.7025 8.99996C16.8182 9.42304 16.7411 9.76919 16.7411 9.76919C17.7826 10.3077 18.0526 10.6538 18.9398 11.1538C19.827 11.6538 20.0585 11.3846 20.9071 12C21.8329 11.6154 23.2987 11.8462 23.8773 12.1154C24.1859 11.3846 24.3016 10.6154 24.3016 10.6154C23.8001 10.3462 24.1473 9.80765 24.1859 9.15381C24.2245 8.49996 24.6102 8.23073 24.9959 8.38458C24.9959 8.38458 25.2274 7.26919 25.7288 6.65381C26.6932 5.53842 28.8148 5.42304 29.8948 6.11535C31.1678 6.92304 31.1292 8.11538 30.782 8.84615C30.8592 9.65385 30.5892 10.3077 30.512 10.7307C30.3963 11.3846 30.0491 11.1154 30.0491 11.6154C30.0491 12.1538 29.7405 12.6153 29.3934 13.1923L29.8563 13.5769C29.972 13.6923 30.0491 13.7692 30.1263 13.8462C30.242 14 30.2806 14 30.3963 14.0769C30.9749 14.3846 31.3992 14.7307 31.6692 15.1538C32.7879 15.6153 33.4822 16.3462 33.9837 17.5385C34.1766 18.0385 34.2923 18.5769 34.2923 19.0385C34.4852 19.1538 35.7967 20 36.2596 22C36.5296 23.0769 36.761 23.4615 36.7996 23.5385C36.9539 23.6923 37.031 23.8846 37.0696 24.0769C37.0696 24.1538 37.1853 24.6538 37.1468 25.3077C37.2239 25.3846 37.2625 25.4615 37.3011 25.5384C37.3782 25.7307 38.1497 27.2692 36.761 29.5384C36.8382 29.6153 36.8767 29.6923 36.9153 29.7692C37.031 30 37.1082 30.1923 37.1468 30.3846C37.3782 30.5385 37.6096 30.6923 37.7254 30.8846C37.7639 30.923 37.8411 31 37.9182 31.0769C37.8797 30.8461 37.8797 30.5769 37.9568 30.2308C37.9568 30.1923 37.9568 30.1538 37.9954 30.1538C38.1497 29.7307 38.4583 29.3846 38.8441 29.2308V29.1923C39.0755 28.4615 40.0399 27.7692 41.4285 27.7692C41.66 27.7692 41.93 27.8077 42.1614 27.8461C43.1258 28 43.5115 28.3846 43.7815 28.7692V29.8462C43.743 29.8462 43.6658 29.8846 43.6272 29.8846C43.1258 30.0769 42.8558 30.3077 43.0486 30.5C43.1644 30.6153 43.3958 30.5769 43.6658 30.4615L42.2771 31.8461C42.2771 31.8076 42.2771 31.8077 42.3157 31.7692C42.3929 31.4231 42.2386 31.1153 42.2386 31.1153C42.2386 31.1153 41.5828 30.7692 41.3899 31.2692C41.3899 31.2692 41.4285 31.4615 41.3128 31.7308C41.1971 31.9615 41.3899 32 41.1971 32.5769C41.2356 32.6538 41.3128 32.6923 41.3899 32.7308L40.2327 33.8846C39.9627 33.4615 39.847 32.9615 39.847 32.9615L39.8856 33.5769L39.2684 33.1923L39.6927 33.7308L38.6126 33.8846L39.4227 34L38.3426 34.3461L39.3841 34.4231L38.4197 34.6538L39.1527 34.7307C38.9984 34.8846 38.0725 35.2308 38.0725 35.2308C38.0725 35.2308 38.6126 35.1923 38.9984 35.0769L38.6898 35.3846C38.4583 35.5 38.2654 35.5384 38.2654 35.5384C38.2654 35.5384 38.3426 35.5769 38.4583 35.6154L30.8592 43.2692L19.017 44.3462H31.3221L40.117 35.3461L44.7845 30.5769V28.5769V13.1923L40.6185 9.15381Z" fill="#101010"/>
<path d="M74.4865 2.0769H57.2053V31.5384C57.2053 37.5384 62.0656 42.3846 68.0832 42.3846H80.3497L82.857 32.9231H73.985L72.3263 34.8461L72.7892 32.9231H66.6945V11.5384H75.9137V18.7308L83.3199 16.7308L84.0528 15.2692L84.4 16.4231L85.4029 16.1538V12.9231C85.3643 6.92306 80.504 2.0769 74.4865 2.0769Z" fill="#101010"/>
<path d="M115.684 2.99999L117.767 2.65383V2.0769H88.296V11.5L98.2867 11.5384V40.1923L100.37 40.4616L98.2867 41.2308V42.3462H107.737L107.776 11.5384H117.767V3.96152L115.684 2.99999Z" fill="#101010"/>
<path d="M146.388 42.3846C146.157 41.3846 145.926 40.3462 145.887 40.2692C145.848 40.1923 146.929 41.3846 147.854 42.3846H148.857V2.0769H131.576C125.558 2.0769 120.698 6.92306 120.698 12.9231V30.3846L122.665 32.0384L120.698 31.5384V42.3462H130.187V35.3077L139.407 32.8846V42.3462L146.388 42.3846ZM130.149 25.5769V11.5384H139.368V18.2307L141.027 19.6923L139.368 19.6154V23.1538L130.149 25.5769Z" fill="#101010"/>
<path d="M178.135 2.11536L177.826 6.53843L177.016 2.11536H162.628C156.611 2.11536 151.75 6.96151 151.75 12.9615V42.423H157.266L157.035 40.0769L158.424 42.423H161.239V11.5769H170.459V42.423H179.948V2.11536H178.135Z" fill="#101010"/>
<path d="M209.226 37.3846L211 37.6923V25.1923C211 19.1923 206.14 14.3461 200.122 14.3461H197.345L195.339 21.8846L197.036 21.8077L195.03 23L194.837 23.7692H201.549V32.9615H192.33V2.11536H188.164L185.773 3.61535L186.544 2.11536H182.841V42.423H211V40.1538L209.226 37.3846Z" fill="#101010"/>
<path d="M58.1311 53.2308V54.5H58.7097C59.134 54.5 59.5583 54.5385 59.8669 54.6154C60.2141 54.6924 60.5227 54.8077 60.7541 54.9616C60.9856 55.1154 61.1784 55.3077 61.2941 55.577C61.4099 55.8077 61.487 56.1154 61.487 56.5C61.487 57.1539 61.2556 57.6539 60.7541 57.9616C60.2912 58.2693 59.5969 58.4616 58.7097 58.4616C58.4782 58.4616 58.1697 58.4616 57.8611 58.4231C57.5525 58.3847 57.2439 58.3462 56.9739 58.2693V52.3077H60.947V53.2308H58.1311ZM58.5168 57.4616C58.594 57.4616 58.6711 57.4616 58.7483 57.4616C58.8254 57.4616 58.9026 57.4616 59.0183 57.4616C59.2112 57.4616 59.3654 57.4231 59.5583 57.3847C59.7126 57.3462 59.8669 57.3077 59.9826 57.2308C60.0984 57.1539 60.2141 57.0385 60.2912 56.9231C60.3684 56.8077 60.407 56.6539 60.407 56.4616C60.407 56.2693 60.3684 56.077 60.2912 55.9616C60.2141 55.8462 60.0984 55.7308 59.9441 55.6539C59.7898 55.577 59.6355 55.5385 59.404 55.5C59.2112 55.4616 58.9797 55.4616 58.7097 55.4616H58.1311V57.5C58.1697 57.5 58.2468 57.5 58.2854 57.5C58.3625 57.4616 58.4397 57.4616 58.5168 57.4616Z" fill="#101010"/>
<path d="M73.0592 55.3461C73.0592 55.8461 72.9821 56.3077 72.8278 56.7307C72.6735 57.1153 72.4806 57.4615 72.2106 57.7307C71.9406 58 71.632 58.1923 71.2848 58.3461C70.9377 58.4615 70.5519 58.5384 70.1276 58.5384C69.7419 58.5384 69.3561 58.4615 68.9704 58.3461C68.6232 58.2307 68.3146 58 68.0446 57.7307C67.7746 57.4615 67.5817 57.1538 67.4274 56.7307C67.2731 56.3461 67.196 55.8846 67.196 55.3461C67.196 54.8461 67.2731 54.3846 67.4274 53.9615C67.5817 53.5769 67.8132 53.2307 68.0832 52.9615C68.3532 52.6923 68.6618 52.5 69.009 52.3461C69.3561 52.2307 69.7419 52.1538 70.1276 52.1538C70.5133 52.1538 70.8991 52.2307 71.2463 52.3461C71.5934 52.4615 71.902 52.6923 72.172 52.9615C72.442 53.2307 72.6349 53.5769 72.7892 53.9615C72.9821 54.3461 73.0592 54.8077 73.0592 55.3461ZM68.3146 55.3461C68.3146 55.6923 68.3532 55.9615 68.4303 56.2692C68.5075 56.5384 68.6232 56.7692 68.7775 56.9615C68.9318 57.1538 69.1247 57.3077 69.3561 57.3846C69.5876 57.5 69.819 57.5384 70.1276 57.5384C70.3976 57.5384 70.6676 57.5 70.8605 57.3846C71.092 57.2692 71.2848 57.1153 71.4391 56.9615C71.5934 56.7692 71.7091 56.5384 71.7863 56.2692C71.8634 56 71.902 55.6923 71.902 55.3461C71.902 55 71.8634 54.7307 71.7863 54.423C71.7091 54.1538 71.5934 53.923 71.4391 53.7307C71.2848 53.5384 71.092 53.3846 70.8605 53.3077C70.6291 53.1923 70.3976 53.1538 70.1276 53.1538C69.8576 53.1538 69.5876 53.1923 69.3561 53.3077C69.1247 53.423 68.9318 53.5769 68.7775 53.7692C68.6232 53.9615 68.5075 54.1923 68.4303 54.4615C68.3532 54.6923 68.3146 55 68.3146 55.3461Z" fill="#101010"/>
<path d="M78.9996 58.3846V52.3077H80.0797V56.3462C80.2726 56.0385 80.504 55.6923 80.774 55.3462C81.0441 55 81.2755 54.6154 81.5455 54.2693C81.8155 53.9231 82.0856 53.5769 82.3556 53.2308C82.6256 52.8846 82.857 52.6154 83.1271 52.3462H84.0143V58.4231H82.9342V54.077C82.7027 54.3846 82.4327 54.6923 82.1627 55.0769C81.8927 55.4231 81.6227 55.8077 81.3526 56.1923C81.0826 56.577 80.8512 56.9616 80.5812 57.3462C80.3497 57.7308 80.1183 58.0769 79.9254 58.4231H78.9996V58.3846ZM81.5455 51.7308C81.3526 51.7308 81.1984 51.6923 81.0055 51.6539C80.8512 51.6154 80.6969 51.5385 80.5812 51.4231C80.4654 51.3077 80.3497 51.1923 80.2726 51.077C80.1954 50.9231 80.1569 50.7693 80.1183 50.577L80.8898 50.3846C81.0055 50.8077 81.1984 51 81.5455 51C81.8927 51 82.1241 50.8077 82.2013 50.3846L82.9728 50.577C82.9342 50.7693 82.8956 50.9231 82.8185 51.077C82.7413 51.2308 82.6256 51.3462 82.5099 51.4231C82.3941 51.5 82.2399 51.577 82.0856 51.6539C81.8927 51.7308 81.7384 51.7308 81.5455 51.7308Z" fill="#101010"/>
<path d="M95.9336 57.4231V59.9616H94.8921V58.3462H90.2247V52.3077H91.3433V57.4231H93.9278V52.3077H95.0464V57.4231H95.9336Z" fill="#101010"/>
<path d="M107.159 55.3461C107.159 55.8461 107.082 56.3077 106.927 56.7307C106.773 57.1153 106.58 57.4615 106.31 57.7307C106.04 58 105.731 58.1923 105.384 58.3461C105.037 58.4615 104.651 58.5384 104.227 58.5384C103.841 58.5384 103.456 58.4615 103.07 58.3461C102.723 58.2307 102.414 58 102.144 57.7307C101.874 57.4615 101.681 57.1538 101.527 56.7307C101.373 56.3461 101.295 55.8846 101.295 55.3461C101.295 54.8461 101.373 54.3846 101.527 53.9615C101.681 53.5769 101.913 53.2307 102.183 52.9615C102.453 52.6923 102.761 52.5 103.108 52.3461C103.456 52.2307 103.841 52.1538 104.227 52.1538C104.613 52.1538 104.999 52.2307 105.346 52.3461C105.693 52.4615 106.001 52.6923 106.271 52.9615C106.542 53.2307 106.734 53.5769 106.889 53.9615C107.082 54.3461 107.159 54.8077 107.159 55.3461ZM102.414 55.3461C102.414 55.6923 102.453 55.9615 102.53 56.2692C102.607 56.5384 102.723 56.7692 102.877 56.9615C103.031 57.1538 103.224 57.3077 103.456 57.3846C103.687 57.5 103.918 57.5384 104.227 57.5384C104.497 57.5384 104.767 57.5 104.96 57.3846C105.191 57.2692 105.384 57.1153 105.539 56.9615C105.693 56.7692 105.809 56.5384 105.886 56.2692C105.963 56 106.001 55.6923 106.001 55.3461C106.001 55 105.963 54.7307 105.886 54.423C105.809 54.1538 105.693 53.923 105.539 53.7307C105.384 53.5384 105.191 53.3846 104.96 53.3077C104.729 53.1923 104.497 53.1538 104.227 53.1538C103.957 53.1538 103.687 53.1923 103.456 53.3077C103.224 53.423 103.031 53.5769 102.877 53.7692C102.723 53.9615 102.607 54.1923 102.53 54.4615C102.453 54.6923 102.414 55 102.414 55.3461Z" fill="#101010"/>
<path d="M114.912 58.423C114.603 58.423 114.256 58.423 113.948 58.3846C113.639 58.3461 113.331 58.3076 113.099 58.2692V52.3846C113.215 52.3461 113.369 52.3461 113.523 52.3076C113.678 52.2692 113.832 52.2692 113.986 52.2692C114.141 52.2692 114.295 52.2307 114.449 52.2307C114.603 52.2307 114.758 52.2307 114.873 52.2307C115.259 52.2307 115.568 52.2692 115.915 52.3076C116.224 52.3461 116.494 52.4615 116.725 52.5769C116.956 52.6922 117.149 52.8846 117.265 53.0769C117.381 53.2692 117.458 53.5384 117.458 53.8461C117.458 54.1153 117.381 54.3846 117.265 54.5769C117.111 54.7692 116.918 54.9615 116.686 55.0769C117.072 55.1922 117.342 55.3846 117.497 55.6153C117.689 55.8461 117.767 56.1538 117.767 56.5384C117.767 57.1538 117.535 57.6153 117.072 57.923C116.571 58.2692 115.876 58.423 114.912 58.423ZM114.179 54.7692H114.951C115.375 54.7692 115.684 54.6922 115.954 54.5769C116.185 54.4615 116.301 54.2307 116.301 53.923C116.301 53.6153 116.185 53.423 115.915 53.3076C115.684 53.1923 115.336 53.1153 114.951 53.1153C114.796 53.1153 114.642 53.1153 114.488 53.1153C114.372 53.1153 114.256 53.1153 114.141 53.1538V54.7692H114.179ZM114.179 55.6538V57.4999C114.295 57.4999 114.449 57.5384 114.565 57.5384C114.719 57.5384 114.835 57.5384 114.951 57.5384C115.182 57.5384 115.375 57.5384 115.568 57.4999C115.761 57.4615 115.915 57.423 116.069 57.3461C116.224 57.2692 116.339 57.1923 116.416 57.0384C116.494 56.923 116.532 56.7692 116.532 56.5769C116.532 56.2307 116.416 55.9999 116.146 55.8461C115.876 55.7307 115.529 55.6538 115.105 55.6538H114.179Z" fill="#101010"/>
<path d="M126.33 58.5C125.867 58.5 125.481 58.423 125.096 58.3076C124.748 58.1538 124.44 57.9615 124.17 57.6923C123.9 57.423 123.707 57.0769 123.591 56.6923C123.476 56.3076 123.398 55.8461 123.398 55.3461C123.398 54.8461 123.476 54.3846 123.63 54C123.784 53.6153 124.016 53.2692 124.247 53C124.517 52.7307 124.826 52.5384 125.211 52.3846C125.559 52.2307 125.944 52.1923 126.369 52.1923C126.639 52.1923 126.831 52.1923 127.063 52.2307C127.256 52.2692 127.449 52.3076 127.603 52.3461C127.757 52.3846 127.873 52.4615 127.989 52.5C128.104 52.5384 128.143 52.5769 128.182 52.6153L127.873 53.5C127.719 53.423 127.526 53.3461 127.256 53.2692C126.986 53.1923 126.716 53.1538 126.407 53.1538C126.137 53.1538 125.906 53.1923 125.674 53.3076C125.443 53.3846 125.25 53.5384 125.096 53.7307C124.941 53.923 124.787 54.1538 124.71 54.423C124.633 54.6923 124.556 55 124.556 55.3846C124.556 55.6923 124.594 56 124.671 56.2692C124.748 56.5384 124.864 56.7692 125.018 56.9615C125.173 57.1538 125.366 57.3076 125.597 57.423C125.829 57.5384 126.099 57.5769 126.446 57.5769C126.831 57.5769 127.14 57.5384 127.41 57.4615C127.641 57.3846 127.834 57.3076 127.989 57.2307L128.297 58.1153C128.22 58.1538 128.143 58.1923 128.027 58.2692C127.912 58.3076 127.757 58.3461 127.603 58.423C127.449 58.4615 127.256 58.5 127.063 58.5384C126.793 58.5 126.561 58.5 126.33 58.5Z" fill="#101010"/>
<path d="M137.632 58.3847C137.478 58.1539 137.324 57.9231 137.092 57.6539C136.899 57.3847 136.668 57.1539 136.475 56.9231C136.244 56.6924 136.012 56.4616 135.781 56.2308C135.549 56 135.318 55.8462 135.086 55.6539V58.3847H133.968V52.3077H135.086V54.8077C135.279 54.6154 135.472 54.4231 135.703 54.1924C135.896 53.9616 136.128 53.7693 136.321 53.5385C136.514 53.3077 136.745 53.1154 136.899 52.8847C137.092 52.6924 137.246 52.5 137.401 52.3077H138.712C138.519 52.5385 138.327 52.7693 138.095 53C137.864 53.2308 137.671 53.4616 137.439 53.7308C137.208 53.9616 136.976 54.2308 136.745 54.4616C136.514 54.6924 136.282 54.9231 136.051 55.1539C136.282 55.3462 136.552 55.577 136.784 55.8077C137.054 56.0385 137.285 56.3077 137.516 56.6154C137.748 56.8847 137.979 57.1924 138.211 57.5C138.442 57.8077 138.635 58.1154 138.828 58.4231H137.632V58.3847Z" fill="#101010"/>
<path d="M144.614 58.3847V52.3077H145.694V56.3462C145.887 56.0385 146.118 55.6924 146.388 55.3462C146.659 55 146.89 54.6154 147.16 54.2693C147.43 53.9231 147.7 53.577 147.97 53.2308C148.24 52.8847 148.471 52.6154 148.742 52.3462H149.629V58.4231H148.549V54.077C148.317 54.3847 148.047 54.6924 147.777 55.077C147.507 55.4231 147.237 55.8077 146.967 56.1924C146.697 56.577 146.466 56.9616 146.196 57.3462C145.964 57.7308 145.733 58.077 145.54 58.4231H144.614V58.3847Z" fill="#101010"/>
<path d="M155.839 58.3846V52.3077H156.919V56.3462C157.112 56.0385 157.344 55.6923 157.614 55.3462C157.884 55 158.115 54.6154 158.385 54.2693C158.655 53.9231 158.925 53.5769 159.195 53.2308C159.465 52.8846 159.697 52.6154 159.967 52.3462H160.854V58.4231H159.774V54.077C159.542 54.3846 159.272 54.6923 159.002 55.0769C158.732 55.4231 158.462 55.8077 158.192 56.1923C157.922 56.577 157.691 56.9616 157.421 57.3462C157.189 57.7308 156.958 58.0769 156.765 58.4231H155.839V58.3846ZM158.424 51.7308C158.231 51.7308 158.076 51.6923 157.884 51.6539C157.729 51.6154 157.575 51.5385 157.459 51.4231C157.344 51.3077 157.228 51.1923 157.151 51.077C157.073 50.9231 157.035 50.7693 156.996 50.577L157.768 50.3846C157.884 50.8077 158.076 51 158.424 51C158.771 51 159.002 50.8077 159.079 50.3846L159.851 50.577C159.812 50.7693 159.774 50.9231 159.697 51.077C159.619 51.2308 159.504 51.3462 159.388 51.4231C159.272 51.5 159.118 51.577 158.964 51.6539C158.771 51.7308 158.578 51.7308 158.424 51.7308Z" fill="#101010"/>
<path d="M177.672 58.3847C177.518 58.1539 177.363 57.9231 177.132 57.6539C176.939 57.3847 176.708 57.1539 176.515 56.9231C176.283 56.6924 176.052 56.4616 175.82 56.2308C175.589 56 175.358 55.8462 175.126 55.6539V58.3847H174.007V52.3077H175.126V54.8077C175.319 54.6154 175.512 54.4231 175.743 54.1924C175.936 53.9616 176.168 53.7693 176.361 53.5385C176.553 53.3077 176.785 53.1154 176.939 52.8847C177.132 52.6924 177.286 52.5 177.441 52.3077H178.752C178.559 52.5385 178.366 52.7693 178.135 53C177.903 53.2308 177.711 53.4616 177.479 53.7308C177.248 53.9616 177.016 54.2308 176.785 54.4616C176.553 54.6924 176.322 54.9231 176.09 55.1539C176.322 55.3462 176.592 55.577 176.823 55.8077C177.093 56.0385 177.325 56.3077 177.556 56.6154C177.788 56.8847 178.019 57.1924 178.251 57.5C178.482 57.8077 178.675 58.1154 178.868 58.4231H177.672V58.3847Z" fill="#101010"/>
<path d="M187.238 53.2693C187.238 53.6539 187.2 54.077 187.161 54.4616C187.123 54.8847 187.084 55.2693 187.046 55.6539C186.968 56.0385 186.891 56.3847 186.776 56.7308C186.66 57.077 186.505 57.3462 186.274 57.6154C186.081 57.8847 185.811 58.077 185.503 58.2308C185.194 58.3846 184.808 58.4616 184.384 58.4616L184.268 57.5C184.461 57.4616 184.654 57.4231 184.808 57.3846C184.963 57.3077 185.117 57.2308 185.233 57.1539C185.348 57.0385 185.464 56.9231 185.541 56.8077C185.618 56.6539 185.695 56.5 185.773 56.3077C185.927 55.8462 186.043 55.2693 186.081 54.6154C186.12 53.9231 186.158 53.1539 186.158 52.3462H189.939V58.4231H188.82V53.3077H187.238V53.2693Z" fill="#101010"/>
<path d="M199.196 56.5385C199.042 56.8462 198.888 57.1539 198.733 57.3847C198.579 57.6154 198.425 57.8078 198.232 58.0001C198.039 58.1539 197.846 58.2693 197.615 58.3462C197.383 58.4231 197.152 58.4616 196.843 58.4616C196.689 58.4616 196.496 58.4616 196.303 58.4231C196.11 58.3847 195.956 58.3462 195.84 58.3078L196.033 57.3847C196.149 57.4231 196.265 57.4616 196.38 57.5001C196.496 57.5385 196.612 57.5385 196.766 57.5385C197.036 57.5385 197.268 57.4616 197.422 57.3462C197.615 57.2308 197.769 57.0385 197.923 56.7308C197.692 56.3462 197.422 55.9231 197.229 55.5385C196.998 55.1539 196.805 54.7308 196.612 54.3462C196.419 53.9616 196.226 53.6154 196.072 53.2308C195.918 52.8847 195.763 52.577 195.648 52.2693H196.882C196.959 52.5001 197.075 52.7693 197.19 53.0385C197.306 53.3077 197.422 53.577 197.576 53.8847C197.731 54.1924 197.846 54.4616 198.001 54.7693C198.155 55.077 198.309 55.3847 198.463 55.6924C198.656 55.1924 198.888 54.6154 199.081 54.0385C199.273 53.4616 199.466 52.8462 199.621 52.2693H200.816C200.662 52.6924 200.546 53.1154 200.392 53.5001C200.238 53.8847 200.122 54.2308 199.968 54.577C199.814 54.9231 199.698 55.2693 199.544 55.577C199.466 55.9231 199.351 56.2308 199.196 56.5385Z" fill="#101010"/>
<path d="M207.605 53.2308V54.5H208.184C208.608 54.5 209.033 54.5385 209.341 54.6154C209.688 54.6924 209.997 54.8077 210.229 54.9616C210.46 55.1154 210.653 55.3077 210.769 55.577C210.884 55.8077 210.961 56.1154 210.961 56.5C210.961 57.1539 210.73 57.6539 210.229 57.9616C209.766 58.2693 209.071 58.4616 208.184 58.4616C207.953 58.4616 207.644 58.4616 207.335 58.4231C207.027 58.3847 206.718 58.3462 206.448 58.2693V52.3077H210.344V53.2308H207.605ZM207.991 57.4616C208.068 57.4616 208.146 57.4616 208.223 57.4616C208.3 57.4616 208.377 57.4616 208.493 57.4616C208.686 57.4616 208.84 57.4231 209.033 57.3847C209.187 57.3462 209.341 57.3077 209.457 57.2308C209.573 57.1539 209.688 57.0385 209.766 56.9231C209.843 56.8077 209.881 56.6539 209.881 56.4616C209.881 56.2693 209.843 56.077 209.766 55.9616C209.688 55.8462 209.573 55.7308 209.418 55.6539C209.264 55.577 209.11 55.5385 208.878 55.5C208.686 55.4616 208.454 55.4616 208.184 55.4616H207.605V57.5C207.644 57.5 207.721 57.5 207.76 57.5C207.837 57.4616 207.914 57.4616 207.991 57.4616Z" fill="#101010"/>
</g>
<defs>
<clipPath id="clip0_7_132">
<rect width="211" height="60" fill="white"/>
</clipPath>
</defs>
</svg>
