<svg width="60" height="60" viewBox="0 0 60 60" fill="none" xmlns="http://www.w3.org/2000/svg">
<path d="M51.375 23V22.9996C51.3618 11.2008 41.7992 1.63823 30.0004 1.625L29.9996 1.625C18.2008 1.63823 8.63823 11.2008 8.625 22.9996V23C8.625 41.7913 23.8171 53.8419 28.7725 57.7725L28.788 57.7848L28.8052 57.7985L28.8239 57.81C28.8598 57.8322 28.9003 57.8651 28.9655 57.9215C28.9718 57.927 28.9783 57.9326 28.9851 57.9385C29.0415 57.9876 29.1142 58.0508 29.195 58.1092C29.3892 58.2499 29.6445 58.375 30 58.375C30.3542 58.375 30.6065 58.2528 30.8007 58.1122C30.8796 58.0549 30.9515 57.9926 31.0075 57.9439C31.015 57.9374 31.0223 57.9311 31.0292 57.9251C31.094 57.8692 31.1368 57.8344 31.1766 57.8097L31.195 57.7983L31.212 57.7848L31.2275 57.7725C36.1829 53.8419 51.375 41.7913 51.375 23ZM30 2.375C41.385 2.38799 50.6122 11.6153 50.625 23.0004C50.6248 41.3903 35.7415 53.2346 30.7613 57.185C30.674 57.2416 30.5982 57.3064 30.5388 57.3577C30.5308 57.3645 30.5232 57.3712 30.5157 57.3777C30.4571 57.4284 30.4112 57.4682 30.3606 57.5048C30.2615 57.5767 30.1598 57.625 30 57.625C29.8415 57.625 29.7368 57.5756 29.6348 57.5018C29.5826 57.464 29.5353 57.423 29.4759 57.3714L29.4564 57.3546C29.3986 57.3045 29.3237 57.2402 29.2386 57.185C24.2584 53.2345 9.37511 41.3902 9.375 23.0002C9.38788 11.6152 18.615 2.388 30 2.375ZM28.0475 58.7972L28.0304 58.7795L28.0111 58.7642C22.8608 54.6783 7.375 42.3759 7.375 23C7.375 10.5041 17.5041 0.375 30 0.375C42.4959 0.375 52.625 10.5041 52.625 23C52.625 42.3759 37.1392 54.6783 31.9889 58.7642L31.9696 58.7795L31.9525 58.7972C31.6992 59.059 31.3958 59.2672 31.0603 59.4094C30.7249 59.5516 30.3643 59.6248 30 59.6248C29.6357 59.6248 29.2751 59.5516 28.9397 59.4094C28.6042 59.2672 28.3008 59.059 28.0475 58.7972Z" fill="#D10C35" stroke="#EAEAEA" stroke-width="0.75"/>
<path d="M23.1183 7.62353L23.1183 7.6236C24.8976 6.96199 26.7793 6.62297 28.6776 6.62508C31.1147 6.52604 33.5449 6.94934 35.805 7.86662L35.8165 7.87126L35.8164 7.87145C37.8166 8.76103 39.1831 10.0922 39.862 11.8634C40.537 13.6243 40.5128 15.7694 39.839 18.2581L39.8389 18.2582C38.9568 21.5136 37.0828 23.5446 34.8219 24.6561C32.5734 25.7615 29.9702 25.9448 27.6257 25.5694C23.7847 24.9569 19.7935 22.6556 18.2697 19.1288L18.2647 19.1172L18.2649 19.1171C18.2549 19.0916 18.2432 19.0667 18.2299 19.0427L18.2196 19.0241L18.2115 19.0044C17.8602 18.1551 17.6643 17.2495 17.6332 16.331L23.1183 7.62353ZM23.1183 7.62353L23.1111 7.62636M23.1183 7.62353L23.1111 7.62636M23.1111 7.62636C21.241 8.36583 19.8261 9.47157 18.9009 10.9444M23.1111 7.62636L18.9009 10.9444M21.555 36.6251H21.93H24C24.1658 36.6251 24.3247 36.5592 24.4419 36.442C24.5591 36.3248 24.625 36.1659 24.625 36.0001C24.625 35.8343 24.5591 35.6754 24.4419 35.5581C24.3247 35.4409 24.1658 35.3751 24 35.3751H21.566H21.3345L21.2308 35.1681C19.401 31.5178 18.7186 26.8658 18.4598 22.8552L18.3954 21.8582L19.0999 22.5667C21.3518 24.8314 24.2691 26.3164 27.4253 26.8045L27.4269 26.8047C28.1997 26.9277 28.98 26.9901 29.762 26.9901C32.0564 26.9901 34.4544 26.45 36.4854 25.136C38.5098 23.8263 40.191 21.7344 41.044 18.586L41.0446 18.5839C41.2792 17.7373 41.4455 16.873 41.5423 15.9998L41.5658 15.7878L41.76 15.6996C42.4323 15.3945 43.0562 15.2008 43.6064 15.1367C44.1534 15.0731 44.6609 15.1343 45.0647 15.3806C45.5236 15.6582 45.8297 16.1558 46.022 16.7732C46.2156 17.3945 46.308 18.18 46.308 19.1011C46.308 23.3386 44.2813 27.1111 42.1041 29.9454C39.9236 32.7842 37.5616 34.7217 36.8235 35.2969L36.7219 35.3761H36.593H28C27.8342 35.3761 27.6753 35.4419 27.5581 35.5591C27.4408 35.6764 27.375 35.8353 27.375 36.0011C27.375 36.1669 27.4408 36.3258 27.5581 36.443C27.6753 36.5602 27.8342 36.6261 28 36.6261H35.93H36.305V37.0011V40.0011V40.3761H35.93H28.486C28.3202 40.3761 28.1613 40.4419 28.0441 40.5591C27.9268 40.6764 27.861 40.8353 27.861 41.0011C27.861 41.1669 27.9268 41.3258 28.0441 41.443C28.1613 41.5602 28.3202 41.6261 28.486 41.6261H35.93H36.305V42.0011V44.0011C36.305 44.3658 36.1601 44.7155 35.9023 44.9734C35.6444 45.2312 35.2947 45.3761 34.93 45.3761H22.93C22.7493 45.3761 22.5704 45.3405 22.4035 45.2713C22.2366 45.2021 22.0849 45.1007 21.9572 44.9729C21.8295 44.8451 21.7283 44.6933 21.6593 44.5263C21.5903 44.3595 21.5549 44.1806 21.555 44.0001C21.555 44 21.555 43.9998 21.555 43.9997M21.555 36.6251L21.93 44.0001L21.555 43.9997M21.555 36.6251V37.0001L21.555 43.9997M21.555 36.6251L21.555 43.9997M18.9009 10.9444C17.9768 12.4155 17.5608 14.2218 17.6332 16.3308L18.9009 10.9444ZM37.6989 36.2047L37.555 36.3173V36.5001V44.0001C37.555 44.6963 37.2784 45.364 36.7861 45.8562C36.2939 46.3485 35.6262 46.6251 34.93 46.6251H22.931C22.2348 46.6251 21.5671 46.3485 21.0748 45.8562C20.5826 45.364 20.306 44.6963 20.306 44.0001V36.2131V36.1206L20.2629 36.0387C17.6691 31.1025 17.1809 24.372 17.0669 19.5592L17.0653 19.4902L17.0392 19.4263C16.6427 18.4556 16.4215 17.4223 16.3858 16.3743L16.3858 16.374C16.2786 13.3147 17.1087 11.1395 18.317 9.58401C19.5295 8.0231 21.1442 7.05886 22.6461 6.46492C24.6842 5.69661 26.8514 5.3289 29.0289 5.38198L29.0375 5.38219L29.0462 5.382C31.5419 5.3274 34.022 5.78801 36.3317 6.73506L36.3317 6.73514L36.3395 6.73815C37.8081 7.30238 39.0834 8.27708 40.0134 9.54602C40.9434 10.815 41.4889 12.3246 41.5847 13.8949L41.6177 14.4354L42.112 14.2145C42.6848 13.9584 43.3082 13.8354 43.9354 13.8544C44.5584 13.8733 45.1691 14.0321 45.7224 14.3188C46.8882 15.0353 47.555 16.5801 47.555 19.1001C47.555 23.5054 45.5904 27.3968 43.3594 30.3927C41.1301 33.3863 38.6582 35.4543 37.6989 36.2047Z" fill="#D10C35" stroke="#EAEAEA" stroke-width="0.75"/>
<path d="M21.006 17.2159H21.042C21.3069 17.2065 21.5573 17.0924 21.738 16.8985C21.9188 16.7046 22.0152 16.4468 22.006 16.1819C21.926 13.8699 22.592 12.6519 24.381 11.8389C24.5006 11.7846 24.6082 11.7072 24.6979 11.6112C24.7876 11.5152 24.8574 11.4025 24.9036 11.2795C24.9497 11.1565 24.9711 11.0256 24.9666 10.8944C24.9621 10.7631 24.9319 10.634 24.8775 10.5144C24.8231 10.3949 24.7457 10.2872 24.6498 10.1975C24.5538 10.1078 24.4411 10.038 24.3181 9.99186C24.1951 9.94576 24.0642 9.92433 23.9329 9.9288C23.8017 9.93327 23.6726 9.96356 23.553 10.0179C21.026 11.1669 19.899 13.1469 20.008 16.2509C20.0171 16.5097 20.1261 16.7548 20.3123 16.9348C20.4984 17.1148 20.7471 17.2156 21.006 17.2159ZM34 48.9999H26C25.8022 49 25.6089 49.0586 25.4445 49.1685C25.2801 49.2784 25.152 49.4346 25.0763 49.6173C25.0006 49.8 24.9808 50.001 25.0194 50.195C25.058 50.3889 25.1532 50.5671 25.293 50.7069L29.293 54.7069C29.4805 54.8944 29.7348 54.9997 30 54.9997C30.2652 54.9997 30.5195 54.8944 30.707 54.7069L34.707 50.7069C34.8468 50.5671 34.942 50.3889 34.9806 50.195C35.0191 50.001 34.9993 49.8 34.9237 49.6173C34.848 49.4346 34.7199 49.2784 34.5554 49.1685C34.391 49.0586 34.1977 49 34 48.9999ZM30 52.5859L28.414 50.9999H31.586L30 52.5859Z" fill="#D10C35"/>
</svg>
