<?xml version="1.0" encoding="utf-8"?><svg viewBox="0 0 40 40" xmlns="http://www.w3.org/2000/svg" xmlns:xlink="http://www.w3.org/1999/xlink"><style>:root>svg{display:none}:root>svg:target{display:block}</style><svg viewBox="0 0 24 24" id="chevron-right" xmlns="http://www.w3.org/2000/svg"><path d="m9 18 6-6-6-6"/></svg><svg viewBox="0 0 40 40" id="component-1" xmlns="http://www.w3.org/2000/svg"><path d="M18.519 39.372a2.061 2.061 0 0 0 2.962 0c3.426-2.718 13.852-10.988 13.852-24.039C35.333 6.865 28.47 0 20 0 11.531 0 4.667 6.865 4.667 15.333c0 13.051 10.426 21.321 13.852 24.039ZM20 1.333c7.728.009 13.991 6.272 14 14C34 27.74 23.954 35.71 20.653 38.327c-.181.112-.31.34-.653.34s-.48-.233-.653-.34C16.046 35.71 6 27.74 6 15.333c.009-7.728 6.272-13.991 14-14Z"/><path d="M23.287 31.333a2 2 0 0 0 2-2v-5c1.298-1.015 6.666-5.577 6.666-11.6 0-1.714-.454-2.86-1.348-3.405a3.023 3.023 0 0 0-2.632-.08 5.718 5.718 0 0 0-3.657-4.99 12.355 12.355 0 0 0-4.957-.92 11.534 11.534 0 0 0-4.352.739c-2.058.813-4.48 2.662-4.333 6.848a6.15 6.15 0 0 0 .454 2.12c.076 3.208.4 7.749 2.16 11.097v5.191a2 2 0 0 0 2 2h7.999ZM15.499 5.317a10.348 10.348 0 0 1 3.624-.65 11.14 11.14 0 0 1 4.653.809c2.57 1.143 3.424 3.373 2.542 6.63-1.14 4.205-4.81 5.182-7.861 4.693-2.509-.4-5.077-1.9-6.048-4.146a.666.666 0 0 0-.037-.08 4.867 4.867 0 0 1-.367-1.694c-.094-2.737 1.082-4.608 3.494-5.562Zm-.879 24.016v-4.666H16a.667.667 0 0 0 0-1.334h-1.623c-1.196-2.387-1.649-5.447-1.821-8.112a10.228 10.228 0 0 0 5.69 2.896c.527.084 1.06.126 1.595.126 3.134 0 6.594-1.474 7.763-5.787.16-.577.273-1.167.34-1.762.866-.393 1.56-.477 1.97-.227.466.282.708 1.067.708 2.267 0 5.493-5.26 9.847-6.227 10.6h-5.728a.666.666 0 1 0 0 1.333h5.286v2h-4.962a.667.667 0 0 0 0 1.334h4.962v1.333a.667.667 0 0 1-.666.667h-8a.668.668 0 0 1-.667-.668Z"/><path d="M14.004 11.478h.024a.667.667 0 0 0 .643-.69c-.054-1.541.39-2.353 1.583-2.895a.667.667 0 0 0-.552-1.214c-1.685.766-2.436 2.086-2.363 4.155a.666.666 0 0 0 .665.644Zm8.663 21.189h-5.334a.668.668 0 0 0-.471 1.138l2.667 2.667a.666.666 0 0 0 .942 0l2.667-2.667a.666.666 0 0 0-.471-1.138ZM20 35.057 18.943 34h2.114L20 35.058Z"/></svg><svg viewBox="0 0 35 35" id="component-2" xmlns="http://www.w3.org/2000/svg"><path d="M28.144 21.466c-.757-.432-1.54-.568-2.207-.383-.5.139-.909.455-1.184.917-.605.723-1.355 1.569-1.537 1.7-1.404.951-2.52.84-3.733-.373l-6.812-6.811c-1.213-1.213-1.324-2.33-.374-3.731.133-.184.978-.934 1.702-1.54.461-.275.778-.683.917-1.184.184-.666.048-1.449-.387-2.212-.103-.176-2.545-4.312-4.795-5.502a2.912 2.912 0 0 0-3.437.517L4.792 4.368c-2.381 2.38-3.243 5.078-2.563 8.018.567 2.45 2.22 5.058 4.912 7.75l8.72 8.722c3.418 3.417 6.677 5.133 9.666 5.133 2.195 0 4.245-.926 6.103-2.784l1.505-1.505a2.912 2.912 0 0 0 .517-3.437c-1.191-2.25-5.327-4.692-5.508-4.799Zm4.152 7.398-1.505 1.504c-3.896 3.895-8.637 3.105-14.09-2.349l-8.722-8.721c-2.533-2.533-4.078-4.949-4.594-7.179-.59-2.55.144-4.811 2.245-6.912l1.505-1.505a1.735 1.735 0 0 1 2.043-.307c1.953 1.034 4.304 5.014 4.324 5.047.266.467.367.954.27 1.303a.798.798 0 0 1-.405.496l-.089.061c-.506.423-1.71 1.444-1.962 1.816-.363.536-.603 1.062-.73 1.58-.421-.84-.762-1.815-.874-2.895a.599.599 0 0 0-.652-.529.594.594 0 0 0-.529.652c.429 4.124 3.635 6.808 3.772 6.92.014.012.032.017.047.027l6.294 6.294.082.076c.02.03.034.064.061.092.112.11 2.79 2.708 6.879 3.133a.594.594 0 0 0 .122-1.18 10.444 10.444 0 0 1-3.29-.925 5.107 5.107 0 0 0 1.383-.68c.372-.252 1.394-1.455 1.815-1.96l.062-.09a.802.802 0 0 1 .496-.406c.348-.094.835.005 1.296.267.04.023 4.02 2.374 5.054 4.327a1.729 1.729 0 0 1-.308 2.043Z"/></svg><svg viewBox="0 0 40 40" id="component-3" xmlns="http://www.w3.org/2000/svg"><path d="M14.004 13.812h.024a.667.667 0 0 0 .643-.69c-.054-1.541.39-2.353 1.583-2.895a.666.666 0 1 0-.552-1.214c-1.685.766-2.436 2.086-2.363 4.155a.666.666 0 0 0 .665.644Z"/><path d="M13.287 26.476v5.191a2 2 0 0 0 2 2h8a2 2 0 0 0 2-2v-5c1.298-1.015 6.666-5.577 6.666-11.6 0-1.714-.454-2.86-1.348-3.405a3.025 3.025 0 0 0-2.632-.08 5.717 5.717 0 0 0-3.657-4.99 12.359 12.359 0 0 0-4.957-.92 11.533 11.533 0 0 0-4.352.739c-2.058.813-4.48 2.662-4.333 6.848a6.15 6.15 0 0 0 .454 2.12c.075 3.208.4 7.749 2.159 11.097ZM29.913 12.8c.467.282.709 1.066.709 2.266 0 5.493-5.26 9.847-6.227 10.6h-5.728a.667.667 0 0 0 0 1.333h5.286v2h-4.962a.667.667 0 0 0 0 1.334h4.962v1.333a.667.667 0 0 1-.666.667h-8a.667.667 0 0 1-.667-.667V27H16a.667.667 0 0 0 0-1.333h-1.623c-1.196-2.387-1.649-5.447-1.821-8.113a10.333 10.333 0 0 0 7.285 3.023c3.134 0 6.594-1.474 7.763-5.787.16-.577.273-1.167.34-1.762.867-.393 1.56-.477 1.97-.228ZM15.5 7.65A10.348 10.348 0 0 1 19.123 7a11.16 11.16 0 0 1 4.653.809c2.57 1.143 3.424 3.373 2.542 6.63-1.14 4.206-4.809 5.182-7.861 4.693-2.508-.4-5.074-1.897-6.046-4.142a.653.653 0 0 0-.04-.087 4.861 4.861 0 0 1-.366-1.691c-.094-2.737 1.082-4.608 3.494-5.562Z"/><path d="M2.855 36.123a1.328 1.328 0 0 0 1.748 1.466l5.911-2.038A22.09 22.09 0 0 0 20 37.667c11.028 0 20-7.925 20-17.666 0-9.742-8.972-17.667-20-17.667S0 10.259 0 20.001a16.153 16.153 0 0 0 3.788 10.341l-.933 5.78ZM1.333 20C1.333 10.995 9.707 3.667 20 3.667c10.293 0 18.667 7.328 18.667 16.334S30.293 36.334 20 36.334c-3.08.008-6.124-.67-8.91-1.984a1.306 1.306 0 0 0-1.001-.06L4.17 36.333l.934-5.78a1.33 1.33 0 0 0-.286-1.051A14.867 14.867 0 0 1 1.333 20Z"/></svg><svg viewBox="0 0 35 35" id="component-4" xmlns="http://www.w3.org/2000/svg"><g clip-path="url(#ea)"><path d="M32.083 2.97V1.75a1.75 1.75 0 1 0-3.5 0v1.167h-2.916V1.75a1.75 1.75 0 0 0-3.5 0v1.167H19.25V1.75a1.75 1.75 0 0 0-3.5 0v1.167h-2.917V1.75a1.75 1.75 0 1 0-3.5 0v1.167H6.417V1.75a1.75 1.75 0 0 0-3.5 0v1.22A3.503 3.503 0 0 0 0 6.416v26.25A2.333 2.333 0 0 0 2.333 35h30.334A2.333 2.333 0 0 0 35 32.667V6.417a3.503 3.503 0 0 0-2.917-3.448ZM29.75 1.75a.583.583 0 0 1 1.167 0v3.5a.583.583 0 0 1-1.167 0v-3.5Zm-6.417 0a.583.583 0 0 1 1.167 0v3.5a.583.583 0 0 1-1.167 0v-3.5Zm-6.416 0a.583.583 0 1 1 1.166 0v3.5a.583.583 0 1 1-1.166 0v-3.5Zm-6.417 0a.583.583 0 0 1 1.167 0v3.5a.583.583 0 0 1-1.167 0v-3.5Zm-6.417 0a.583.583 0 0 1 1.167 0v3.5a.583.583 0 0 1-1.167 0v-3.5Zm28.584 32.083H2.333a1.167 1.167 0 0 1-1.166-1.166V10.5h8.75a.583.583 0 0 0 0-1.167h-8.75V6.417a2.333 2.333 0 0 1 1.75-2.25V5.25a1.75 1.75 0 1 0 3.5 0V4.083h2.916V5.25a1.75 1.75 0 0 0 3.5 0V4.083h2.917V5.25a1.75 1.75 0 0 0 3.5 0V4.083h2.917V5.25a1.75 1.75 0 1 0 3.5 0V4.083h2.916V5.25a1.75 1.75 0 0 0 3.5 0V4.166a2.333 2.333 0 0 1 1.75 2.25v2.917h-8.166a.583.583 0 0 0 0 1.167h8.166v22.167a1.167 1.167 0 0 1-1.166 1.166Z"/><path d="M32.083 11.667h-2.916a.583.583 0 1 0 0 1.167H31.5V31.5h-2.333a.584.584 0 0 0 0 1.167h2.916a.583.583 0 0 0 .584-.584V12.25a.583.583 0 0 0-.584-.583Zm-26.25 1.167a.583.583 0 1 0 0-1.167H2.917a.583.583 0 0 0-.584.583v19.834a.583.583 0 0 0 .584.583h2.916a.583.583 0 0 0 0-1.167H3.5V12.834h2.333Zm7.043 2.459h.02a.586.586 0 0 0 .564-.603c-.047-1.349.342-2.06 1.385-2.534a.584.584 0 0 0-.483-1.062c-1.474.67-2.13 1.825-2.068 3.636a.583.583 0 0 0 .582.563Z"/><path d="M28.583 16.392c0-1.5-.397-2.503-1.18-2.98a2.645 2.645 0 0 0-2.303-.07 5 5 0 0 0-3.2-4.366 10.803 10.803 0 0 0-4.337-.805 10.15 10.15 0 0 0-3.807.646c-1.8.712-3.92 2.33-3.792 5.992.022.637.156 1.266.398 1.856.066 2.807.35 6.78 1.89 9.71v4.542a1.75 1.75 0 0 0 1.75 1.75H21a1.75 1.75 0 0 0 1.75-1.75v-4.375c1.135-.89 5.833-4.882 5.833-10.15Zm-14.399-6.49a9.05 9.05 0 0 1 3.17-.569 9.832 9.832 0 0 1 4.072.708c2.248 1 2.996 2.952 2.224 5.802-.997 3.68-4.207 4.534-6.878 4.106-2.194-.35-4.44-1.66-5.29-3.625a.522.522 0 0 0-.037-.08 4.264 4.264 0 0 1-.318-1.475c-.082-2.395.948-4.032 3.057-4.867Zm7.784 15.765h-5.012a.583.583 0 0 0 0 1.166h4.627v1.75H17.24a.583.583 0 1 0 0 1.167h4.342v1.167a.583.583 0 0 1-.584.583H14a.583.583 0 0 1-.583-.583v-4.084h1.207a.583.583 0 0 0 0-1.166h-1.42c-1.05-2.09-1.445-4.767-1.595-7.099a9.042 9.042 0 0 0 6.375 2.645c2.745 0 5.77-1.29 6.792-5.064.14-.505.239-1.02.297-1.542.758-.344 1.365-.417 1.724-.198.409.247.62.933.62 1.983 0 4.806-4.603 8.616-5.449 9.275Z"/></g><defs><clipPath id="ea"><path d="M0 0h35v35H0z"/></clipPath></defs></svg></svg>